<svg width="387" height="139" viewBox="0 0 387 139" fill="none" xmlns="http://www.w3.org/2000/svg">
<path d="M131.273 97.4261C129.038 97.4261 127.116 96.9527 125.506 96.0057C123.905 95.0492 122.674 93.7235 121.812 92.0284C120.96 90.3333 120.534 88.3826 120.534 86.1761C120.534 83.9413 120.965 81.9811 121.827 80.2955C122.698 78.6004 123.934 77.2794 125.534 76.3324C127.134 75.3759 129.038 74.8977 131.244 74.8977C133.148 74.8977 134.814 75.2434 136.244 75.9347C137.674 76.6259 138.806 77.5966 139.639 78.8466C140.473 80.0966 140.932 81.5644 141.017 83.25H135.307C135.146 82.161 134.72 81.285 134.028 80.6222C133.347 79.9498 132.452 79.6136 131.344 79.6136C130.406 79.6136 129.587 79.8693 128.886 80.3807C128.195 80.8826 127.655 81.6165 127.267 82.5824C126.879 83.5483 126.685 84.7178 126.685 86.0909C126.685 87.483 126.874 88.6667 127.253 89.642C127.641 90.6174 128.186 91.3608 128.886 91.8722C129.587 92.3835 130.406 92.6392 131.344 92.6392C132.035 92.6392 132.655 92.4972 133.205 92.2131C133.763 91.929 134.223 91.517 134.582 90.9773C134.952 90.428 135.193 89.7699 135.307 89.0028H141.017C140.922 90.6695 140.468 92.1373 139.653 93.4062C138.848 94.6657 137.736 95.6506 136.315 96.3608C134.895 97.071 133.214 97.4261 131.273 97.4261ZM154.749 97.4261C152.543 97.4261 150.635 96.9574 149.025 96.0199C147.424 95.0729 146.189 93.7566 145.317 92.071C144.446 90.3759 144.011 88.411 144.011 86.1761C144.011 83.9223 144.446 81.9527 145.317 80.267C146.189 78.572 147.424 77.2557 149.025 76.3182C150.635 75.3712 152.543 74.8977 154.749 74.8977C156.956 74.8977 158.859 75.3712 160.46 76.3182C162.069 77.2557 163.31 78.572 164.181 80.267C165.052 81.9527 165.488 83.9223 165.488 86.1761C165.488 88.411 165.052 90.3759 164.181 92.071C163.31 93.7566 162.069 95.0729 160.46 96.0199C158.859 96.9574 156.956 97.4261 154.749 97.4261ZM154.778 92.7386C155.781 92.7386 156.62 92.4545 157.292 91.8864C157.964 91.3087 158.471 90.5227 158.812 89.5284C159.162 88.5341 159.337 87.4025 159.337 86.1335C159.337 84.8646 159.162 83.733 158.812 82.7386C158.471 81.7443 157.964 80.9583 157.292 80.3807C156.62 79.803 155.781 79.5142 154.778 79.5142C153.764 79.5142 152.912 79.803 152.221 80.3807C151.539 80.9583 151.023 81.7443 150.673 82.7386C150.332 83.733 150.161 84.8646 150.161 86.1335C150.161 87.4025 150.332 88.5341 150.673 89.5284C151.023 90.5227 151.539 91.3087 152.221 91.8864C152.912 92.4545 153.764 92.7386 154.778 92.7386ZM169.423 97V75.1818H175.19V79.0312H175.445C175.9 77.7528 176.657 76.7443 177.718 76.0057C178.779 75.267 180.048 74.8977 181.525 74.8977C183.021 74.8977 184.295 75.2718 185.346 76.0199C186.397 76.7585 187.098 77.7623 187.448 79.0312H187.675C188.121 77.7812 188.925 76.7822 190.09 76.0341C191.264 75.2765 192.652 74.8977 194.252 74.8977C196.288 74.8977 197.941 75.5464 199.21 76.8438C200.488 78.1316 201.127 79.9593 201.127 82.3267V97H195.09V83.5199C195.09 82.3078 194.768 81.3987 194.124 80.7926C193.48 80.1866 192.675 79.8835 191.71 79.8835C190.611 79.8835 189.754 80.2339 189.138 80.9347C188.523 81.6259 188.215 82.5398 188.215 83.6761V97H182.349V83.392C182.349 82.322 182.041 81.4697 181.425 80.8352C180.819 80.2008 180.019 79.8835 179.025 79.8835C178.353 79.8835 177.746 80.054 177.207 80.3949C176.676 80.7263 176.255 81.1951 175.942 81.8011C175.63 82.3977 175.474 83.0985 175.474 83.9034V97H169.423ZM205.907 97V75.1818H211.674V79.0312H211.93C212.384 77.7528 213.142 76.7443 214.202 76.0057C215.263 75.267 216.532 74.8977 218.009 74.8977C219.505 74.8977 220.779 75.2718 221.83 76.0199C222.881 76.7585 223.582 77.7623 223.933 79.0312H224.16C224.605 77.7812 225.41 76.7822 226.575 76.0341C227.749 75.2765 229.136 74.8977 230.737 74.8977C232.772 74.8977 234.425 75.5464 235.694 76.8438C236.972 78.1316 237.612 79.9593 237.612 82.3267V97H231.575V83.5199C231.575 82.3078 231.253 81.3987 230.609 80.7926C229.965 80.1866 229.16 79.8835 228.194 79.8835C227.095 79.8835 226.238 80.2339 225.623 80.9347C225.007 81.6259 224.7 82.5398 224.7 83.6761V97H218.833V83.392C218.833 82.322 218.525 81.4697 217.91 80.8352C217.304 80.2008 216.504 79.8835 215.509 79.8835C214.837 79.8835 214.231 80.054 213.691 80.3949C213.161 80.7263 212.739 81.1951 212.427 81.8011C212.114 82.3977 211.958 83.0985 211.958 83.9034V97H205.907ZM252.335 97.4261C250.09 97.4261 248.158 96.9716 246.539 96.0625C244.929 95.1439 243.689 93.8466 242.817 92.1705C241.946 90.4848 241.511 88.4915 241.511 86.1903C241.511 83.946 241.946 81.9763 242.817 80.2812C243.689 78.5862 244.915 77.2652 246.496 76.3182C248.087 75.3712 249.953 74.8977 252.093 74.8977C253.532 74.8977 254.872 75.1297 256.113 75.5938C257.363 76.0483 258.452 76.7348 259.38 77.6534C260.317 78.572 261.047 79.7273 261.567 81.1193C262.088 82.5019 262.349 84.1212 262.349 85.9773V87.6392H243.925V83.8892H256.653C256.653 83.018 256.463 82.2462 256.085 81.5739C255.706 80.9015 255.18 80.3759 254.508 79.9972C253.845 79.6089 253.073 79.4148 252.192 79.4148C251.274 79.4148 250.46 79.6278 249.749 80.054C249.049 80.4706 248.499 81.0341 248.102 81.7443C247.704 82.4451 247.5 83.2263 247.491 84.0881V87.6534C247.491 88.733 247.69 89.6657 248.087 90.4517C248.495 91.2377 249.067 91.8438 249.806 92.2699C250.545 92.696 251.421 92.9091 252.434 92.9091C253.106 92.9091 253.722 92.8144 254.281 92.625C254.839 92.4356 255.317 92.1515 255.715 91.7727C256.113 91.3939 256.416 90.9299 256.624 90.3807L262.221 90.75C261.937 92.0947 261.354 93.2689 260.474 94.2727C259.603 95.267 258.476 96.0436 257.093 96.6023C255.72 97.1515 254.134 97.4261 252.335 97.4261ZM266.298 97V75.1818H272.164V78.9886H272.391C272.789 77.6345 273.457 76.6117 274.394 75.9205C275.332 75.2197 276.411 74.8693 277.633 74.8693C277.936 74.8693 278.263 74.8883 278.613 74.9261C278.963 74.964 279.271 75.0161 279.536 75.0824V80.4517C279.252 80.3665 278.859 80.2907 278.357 80.2244C277.855 80.1581 277.396 80.125 276.979 80.125C276.089 80.125 275.294 80.3191 274.593 80.7074C273.902 81.0862 273.353 81.6165 272.945 82.2983C272.548 82.9801 272.349 83.7661 272.349 84.6562V97H266.298ZM291.507 97.4261C289.272 97.4261 287.35 96.9527 285.74 96.0057C284.14 95.0492 282.909 93.7235 282.047 92.0284C281.195 90.3333 280.768 88.3826 280.768 86.1761C280.768 83.9413 281.199 81.9811 282.061 80.2955C282.932 78.6004 284.168 77.2794 285.768 76.3324C287.369 75.3759 289.272 74.8977 291.479 74.8977C293.382 74.8977 295.049 75.2434 296.479 75.9347C297.909 76.6259 299.04 77.5966 299.874 78.8466C300.707 80.0966 301.166 81.5644 301.251 83.25H295.541C295.38 82.161 294.954 81.285 294.263 80.6222C293.581 79.9498 292.686 79.6136 291.578 79.6136C290.641 79.6136 289.821 79.8693 289.121 80.3807C288.429 80.8826 287.89 81.6165 287.501 82.5824C287.113 83.5483 286.919 84.7178 286.919 86.0909C286.919 87.483 287.108 88.6667 287.487 89.642C287.875 90.6174 288.42 91.3608 289.121 91.8722C289.821 92.3835 290.641 92.6392 291.578 92.6392C292.269 92.6392 292.89 92.4972 293.439 92.2131C293.998 91.929 294.457 91.517 294.817 90.9773C295.186 90.428 295.428 89.7699 295.541 89.0028H301.251C301.157 90.6695 300.702 92.1373 299.888 93.4062C299.083 94.6657 297.97 95.6506 296.55 96.3608C295.129 97.071 293.448 97.4261 291.507 97.4261ZM315.069 97.4261C312.825 97.4261 310.893 96.9716 309.273 96.0625C307.664 95.1439 306.423 93.8466 305.552 92.1705C304.681 90.4848 304.245 88.4915 304.245 86.1903C304.245 83.946 304.681 81.9763 305.552 80.2812C306.423 78.5862 307.649 77.2652 309.231 76.3182C310.822 75.3712 312.687 74.8977 314.827 74.8977C316.267 74.8977 317.607 75.1297 318.847 75.5938C320.097 76.0483 321.186 76.7348 322.114 77.6534C323.052 78.572 323.781 79.7273 324.302 81.1193C324.823 82.5019 325.083 84.1212 325.083 85.9773V87.6392H306.66V83.8892H319.387C319.387 83.018 319.198 82.2462 318.819 81.5739C318.44 80.9015 317.915 80.3759 317.242 79.9972C316.579 79.6089 315.808 79.4148 314.927 79.4148C314.008 79.4148 313.194 79.6278 312.484 80.054C311.783 80.4706 311.234 81.0341 310.836 81.7443C310.438 82.4451 310.235 83.2263 310.225 84.0881V87.6534C310.225 88.733 310.424 89.6657 310.822 90.4517C311.229 91.2377 311.802 91.8438 312.54 92.2699C313.279 92.696 314.155 92.9091 315.168 92.9091C315.841 92.9091 316.456 92.8144 317.015 92.625C317.574 92.4356 318.052 92.1515 318.45 91.7727C318.847 91.3939 319.15 90.9299 319.359 90.3807L324.955 90.75C324.671 92.0947 324.089 93.2689 323.208 94.2727C322.337 95.267 321.21 96.0436 319.827 96.6023C318.454 97.1515 316.868 97.4261 315.069 97.4261Z" fill="white"/>
<g filter="url(#filter0_d_16_21)">
<path d="M8.22226 27H76.2223L78.2223 57.5C78.2223 57.5 63.632 62.4349 58.5 68.5C49.8329 78.743 56.7224 102 56.7224 102C53.7224 105.033 17.7224 104.067 8.22226 99C-1.27783 93.9333 8.22226 27 8.22226 27Z" fill="white"/>
</g>
<path d="M92.8234 112.484C88.2167 113.718 84.0015 113.847 80.1777 112.872C76.3681 111.872 73.1083 109.891 70.3982 106.93C67.6829 103.949 65.6924 100.097 64.4268 95.3741C63.1925 90.7675 63.0033 86.4849 63.8592 82.5264C64.7152 78.568 66.5058 75.182 69.231 72.3685C71.9757 69.5497 75.5445 67.5518 79.9373 66.3748C82.8918 65.5831 85.7698 65.3224 88.5713 65.5925C91.387 65.838 93.9999 66.6483 96.41 68.0233C98.8395 69.3931 100.972 71.3635 102.806 73.9343C104.636 76.4857 106.061 79.6663 107.082 83.476L107.996 86.8873L70.1802 97.0199L68.1178 89.3227L94.2417 82.3228C93.7625 80.5346 92.9493 79.0546 91.802 77.8829C90.6547 76.7112 89.2869 75.9214 87.6985 75.5137C86.1243 75.0814 84.4334 75.1074 82.6257 75.5917C80.7403 76.0969 79.1859 76.9822 77.9624 78.2475C76.7532 79.4882 75.9357 80.9468 75.51 82.6233C75.079 84.2804 75.0908 85.996 75.5453 87.77L77.5062 95.0882C78.1 97.3041 79.0212 99.1093 80.2698 100.504C81.5379 101.893 83.0472 102.822 84.7977 103.291C86.5482 103.759 88.4633 103.715 90.5431 103.157C91.9232 102.787 93.1345 102.255 94.1772 101.559C95.2198 100.863 96.0452 100.016 96.6532 99.0201C97.2613 98.0239 97.6281 96.9048 97.7536 95.6628L109.444 93.3428C109.601 96.2592 109.051 98.9897 107.796 101.534C106.554 104.055 104.668 106.268 102.138 108.175C99.6212 110.058 96.5165 111.494 92.8234 112.484Z" fill="white"/>
<path d="M32 38.5H24.5C24.5 38.5 24.3983 0.5 40.5 0.5C56 0.5 58.5 38.5 58.5 38.5H50C50 38.5 53.7405 9 40.5 9C28.5108 9 32 38.5 32 38.5Z" fill="white" stroke="#D9D9D9" stroke-width="0.5"/>
<defs>
<filter id="filter0_d_16_21" x="0" y="27" width="82.2223" height="84.7195" filterUnits="userSpaceOnUse" color-interpolation-filters="sRGB">
<feFlood flood-opacity="0" result="BackgroundImageFix"/>
<feColorMatrix in="SourceAlpha" type="matrix" values="0 0 0 0 0 0 0 0 0 0 0 0 0 0 0 0 0 0 127 0" result="hardAlpha"/>
<feOffset dy="4"/>
<feGaussianBlur stdDeviation="2"/>
<feComposite in2="hardAlpha" operator="out"/>
<feColorMatrix type="matrix" values="0 0 0 0 0 0 0 0 0 0 0 0 0 0 0 0 0 0 0.25 0"/>
<feBlend mode="normal" in2="BackgroundImageFix" result="effect1_dropShadow_16_21"/>
<feBlend mode="normal" in="SourceGraphic" in2="effect1_dropShadow_16_21" result="shape"/>
</filter>
</defs>
</svg>
