<svg width="387" height="140" viewBox="0 0 387 140" fill="none" xmlns="http://www.w3.org/2000/svg">
<mask id="path-1-outside-1_16_22" maskUnits="userSpaceOnUse" x="120" y="74.5" width="206" height="24" fill="black">
<rect fill="white" x="120" y="74.5" width="206" height="24"/>
<path d="M131.273 97.9261C129.038 97.9261 127.116 97.4527 125.506 96.5057C123.905 95.5492 122.674 94.2235 121.812 92.5284C120.96 90.8333 120.534 88.8826 120.534 86.6761C120.534 84.4413 120.965 82.4811 121.827 80.7955C122.698 79.1004 123.934 77.7794 125.534 76.8324C127.134 75.8759 129.038 75.3977 131.244 75.3977C133.148 75.3977 134.814 75.7434 136.244 76.4347C137.674 77.1259 138.806 78.0966 139.639 79.3466C140.473 80.5966 140.932 82.0644 141.017 83.75H135.307C135.146 82.661 134.72 81.785 134.028 81.1222C133.347 80.4498 132.452 80.1136 131.344 80.1136C130.406 80.1136 129.587 80.3693 128.886 80.8807C128.195 81.3826 127.655 82.1165 127.267 83.0824C126.879 84.0483 126.685 85.2178 126.685 86.5909C126.685 87.983 126.874 89.1667 127.253 90.142C127.641 91.1174 128.186 91.8608 128.886 92.3722C129.587 92.8835 130.406 93.1392 131.344 93.1392C132.035 93.1392 132.655 92.9972 133.205 92.7131C133.763 92.429 134.223 92.017 134.582 91.4773C134.952 90.928 135.193 90.2699 135.307 89.5028H141.017C140.922 91.1695 140.468 92.6373 139.653 93.9062C138.848 95.1657 137.736 96.1506 136.315 96.8608C134.895 97.571 133.214 97.9261 131.273 97.9261ZM154.749 97.9261C152.543 97.9261 150.635 97.4574 149.025 96.5199C147.424 95.5729 146.189 94.2566 145.317 92.571C144.446 90.8759 144.011 88.911 144.011 86.6761C144.011 84.4223 144.446 82.4527 145.317 80.767C146.189 79.072 147.424 77.7557 149.025 76.8182C150.635 75.8712 152.543 75.3977 154.749 75.3977C156.956 75.3977 158.859 75.8712 160.46 76.8182C162.069 77.7557 163.31 79.072 164.181 80.767C165.052 82.4527 165.488 84.4223 165.488 86.6761C165.488 88.911 165.052 90.8759 164.181 92.571C163.31 94.2566 162.069 95.5729 160.46 96.5199C158.859 97.4574 156.956 97.9261 154.749 97.9261ZM154.778 93.2386C155.781 93.2386 156.62 92.9545 157.292 92.3864C157.964 91.8087 158.471 91.0227 158.812 90.0284C159.162 89.0341 159.337 87.9025 159.337 86.6335C159.337 85.3646 159.162 84.233 158.812 83.2386C158.471 82.2443 157.964 81.4583 157.292 80.8807C156.62 80.303 155.781 80.0142 154.778 80.0142C153.764 80.0142 152.912 80.303 152.221 80.8807C151.539 81.4583 151.023 82.2443 150.673 83.2386C150.332 84.233 150.161 85.3646 150.161 86.6335C150.161 87.9025 150.332 89.0341 150.673 90.0284C151.023 91.0227 151.539 91.8087 152.221 92.3864C152.912 92.9545 153.764 93.2386 154.778 93.2386ZM169.423 97.5V75.6818H175.19V79.5312H175.445C175.9 78.2528 176.657 77.2443 177.718 76.5057C178.779 75.767 180.048 75.3977 181.525 75.3977C183.021 75.3977 184.295 75.7718 185.346 76.5199C186.397 77.2585 187.098 78.2623 187.448 79.5312H187.675C188.121 78.2812 188.925 77.2822 190.09 76.5341C191.264 75.7765 192.652 75.3977 194.252 75.3977C196.288 75.3977 197.941 76.0464 199.21 77.3438C200.488 78.6316 201.127 80.4593 201.127 82.8267V97.5H195.09V84.0199C195.09 82.8078 194.768 81.8987 194.124 81.2926C193.48 80.6866 192.675 80.3835 191.71 80.3835C190.611 80.3835 189.754 80.7339 189.138 81.4347C188.523 82.1259 188.215 83.0398 188.215 84.1761V97.5H182.349V83.892C182.349 82.822 182.041 81.9697 181.425 81.3352C180.819 80.7008 180.019 80.3835 179.025 80.3835C178.353 80.3835 177.746 80.554 177.207 80.8949C176.676 81.2263 176.255 81.6951 175.942 82.3011C175.63 82.8977 175.474 83.5985 175.474 84.4034V97.5H169.423ZM205.907 97.5V75.6818H211.674V79.5312H211.93C212.384 78.2528 213.142 77.2443 214.202 76.5057C215.263 75.767 216.532 75.3977 218.009 75.3977C219.505 75.3977 220.779 75.7718 221.83 76.5199C222.881 77.2585 223.582 78.2623 223.933 79.5312H224.16C224.605 78.2812 225.41 77.2822 226.575 76.5341C227.749 75.7765 229.136 75.3977 230.737 75.3977C232.772 75.3977 234.425 76.0464 235.694 77.3438C236.972 78.6316 237.612 80.4593 237.612 82.8267V97.5H231.575V84.0199C231.575 82.8078 231.253 81.8987 230.609 81.2926C229.965 80.6866 229.16 80.3835 228.194 80.3835C227.095 80.3835 226.238 80.7339 225.623 81.4347C225.007 82.1259 224.7 83.0398 224.7 84.1761V97.5H218.833V83.892C218.833 82.822 218.525 81.9697 217.91 81.3352C217.304 80.7008 216.504 80.3835 215.509 80.3835C214.837 80.3835 214.231 80.554 213.691 80.8949C213.161 81.2263 212.739 81.6951 212.427 82.3011C212.114 82.8977 211.958 83.5985 211.958 84.4034V97.5H205.907ZM252.335 97.9261C250.09 97.9261 248.158 97.4716 246.539 96.5625C244.929 95.6439 243.689 94.3466 242.817 92.6705C241.946 90.9848 241.511 88.9915 241.511 86.6903C241.511 84.446 241.946 82.4763 242.817 80.7812C243.689 79.0862 244.915 77.7652 246.496 76.8182C248.087 75.8712 249.953 75.3977 252.093 75.3977C253.532 75.3977 254.872 75.6297 256.113 76.0938C257.363 76.5483 258.452 77.2348 259.38 78.1534C260.317 79.072 261.047 80.2273 261.567 81.6193C262.088 83.0019 262.349 84.6212 262.349 86.4773V88.1392H243.925V84.3892H256.653C256.653 83.518 256.463 82.7462 256.085 82.0739C255.706 81.4015 255.18 80.8759 254.508 80.4972C253.845 80.1089 253.073 79.9148 252.192 79.9148C251.274 79.9148 250.46 80.1278 249.749 80.554C249.049 80.9706 248.499 81.5341 248.102 82.2443C247.704 82.9451 247.5 83.7263 247.491 84.5881V88.1534C247.491 89.233 247.69 90.1657 248.087 90.9517C248.495 91.7377 249.067 92.3438 249.806 92.7699C250.545 93.196 251.421 93.4091 252.434 93.4091C253.106 93.4091 253.722 93.3144 254.281 93.125C254.839 92.9356 255.317 92.6515 255.715 92.2727C256.113 91.8939 256.416 91.4299 256.624 90.8807L262.221 91.25C261.937 92.5947 261.354 93.7689 260.474 94.7727C259.603 95.767 258.476 96.5436 257.093 97.1023C255.72 97.6515 254.134 97.9261 252.335 97.9261ZM266.298 97.5V75.6818H272.164V79.4886H272.391C272.789 78.1345 273.457 77.1117 274.394 76.4205C275.332 75.7197 276.411 75.3693 277.633 75.3693C277.936 75.3693 278.263 75.3883 278.613 75.4261C278.963 75.464 279.271 75.5161 279.536 75.5824V80.9517C279.252 80.8665 278.859 80.7907 278.357 80.7244C277.855 80.6581 277.396 80.625 276.979 80.625C276.089 80.625 275.294 80.8191 274.593 81.2074C273.902 81.5862 273.353 82.1165 272.945 82.7983C272.548 83.4801 272.349 84.2661 272.349 85.1562V97.5H266.298ZM291.507 97.9261C289.272 97.9261 287.35 97.4527 285.74 96.5057C284.14 95.5492 282.909 94.2235 282.047 92.5284C281.195 90.8333 280.768 88.8826 280.768 86.6761C280.768 84.4413 281.199 82.4811 282.061 80.7955C282.932 79.1004 284.168 77.7794 285.768 76.8324C287.369 75.8759 289.272 75.3977 291.479 75.3977C293.382 75.3977 295.049 75.7434 296.479 76.4347C297.909 77.1259 299.04 78.0966 299.874 79.3466C300.707 80.5966 301.166 82.0644 301.251 83.75H295.541C295.38 82.661 294.954 81.785 294.263 81.1222C293.581 80.4498 292.686 80.1136 291.578 80.1136C290.641 80.1136 289.821 80.3693 289.121 80.8807C288.429 81.3826 287.89 82.1165 287.501 83.0824C287.113 84.0483 286.919 85.2178 286.919 86.5909C286.919 87.983 287.108 89.1667 287.487 90.142C287.875 91.1174 288.42 91.8608 289.121 92.3722C289.821 92.8835 290.641 93.1392 291.578 93.1392C292.269 93.1392 292.89 92.9972 293.439 92.7131C293.998 92.429 294.457 92.017 294.817 91.4773C295.186 90.928 295.428 90.2699 295.541 89.5028H301.251C301.157 91.1695 300.702 92.6373 299.888 93.9062C299.083 95.1657 297.97 96.1506 296.55 96.8608C295.129 97.571 293.448 97.9261 291.507 97.9261ZM315.069 97.9261C312.825 97.9261 310.893 97.4716 309.273 96.5625C307.664 95.6439 306.423 94.3466 305.552 92.6705C304.681 90.9848 304.245 88.9915 304.245 86.6903C304.245 84.446 304.681 82.4763 305.552 80.7812C306.423 79.0862 307.649 77.7652 309.231 76.8182C310.822 75.8712 312.687 75.3977 314.827 75.3977C316.267 75.3977 317.607 75.6297 318.847 76.0938C320.097 76.5483 321.186 77.2348 322.114 78.1534C323.052 79.072 323.781 80.2273 324.302 81.6193C324.823 83.0019 325.083 84.6212 325.083 86.4773V88.1392H306.66V84.3892H319.387C319.387 83.518 319.198 82.7462 318.819 82.0739C318.44 81.4015 317.915 80.8759 317.242 80.4972C316.579 80.1089 315.808 79.9148 314.927 79.9148C314.008 79.9148 313.194 80.1278 312.484 80.554C311.783 80.9706 311.234 81.5341 310.836 82.2443C310.438 82.9451 310.235 83.7263 310.225 84.5881V88.1534C310.225 89.233 310.424 90.1657 310.822 90.9517C311.229 91.7377 311.802 92.3438 312.54 92.7699C313.279 93.196 314.155 93.4091 315.168 93.4091C315.841 93.4091 316.456 93.3144 317.015 93.125C317.574 92.9356 318.052 92.6515 318.45 92.2727C318.847 91.8939 319.15 91.4299 319.359 90.8807L324.955 91.25C324.671 92.5947 324.089 93.7689 323.208 94.7727C322.337 95.767 321.21 96.5436 319.827 97.1023C318.454 97.6515 316.868 97.9261 315.069 97.9261Z"/>
</mask>
<path d="M131.273 97.9261C129.038 97.9261 127.116 97.4527 125.506 96.5057C123.905 95.5492 122.674 94.2235 121.812 92.5284C120.96 90.8333 120.534 88.8826 120.534 86.6761C120.534 84.4413 120.965 82.4811 121.827 80.7955C122.698 79.1004 123.934 77.7794 125.534 76.8324C127.134 75.8759 129.038 75.3977 131.244 75.3977C133.148 75.3977 134.814 75.7434 136.244 76.4347C137.674 77.1259 138.806 78.0966 139.639 79.3466C140.473 80.5966 140.932 82.0644 141.017 83.75H135.307C135.146 82.661 134.72 81.785 134.028 81.1222C133.347 80.4498 132.452 80.1136 131.344 80.1136C130.406 80.1136 129.587 80.3693 128.886 80.8807C128.195 81.3826 127.655 82.1165 127.267 83.0824C126.879 84.0483 126.685 85.2178 126.685 86.5909C126.685 87.983 126.874 89.1667 127.253 90.142C127.641 91.1174 128.186 91.8608 128.886 92.3722C129.587 92.8835 130.406 93.1392 131.344 93.1392C132.035 93.1392 132.655 92.9972 133.205 92.7131C133.763 92.429 134.223 92.017 134.582 91.4773C134.952 90.928 135.193 90.2699 135.307 89.5028H141.017C140.922 91.1695 140.468 92.6373 139.653 93.9062C138.848 95.1657 137.736 96.1506 136.315 96.8608C134.895 97.571 133.214 97.9261 131.273 97.9261ZM154.749 97.9261C152.543 97.9261 150.635 97.4574 149.025 96.5199C147.424 95.5729 146.189 94.2566 145.317 92.571C144.446 90.8759 144.011 88.911 144.011 86.6761C144.011 84.4223 144.446 82.4527 145.317 80.767C146.189 79.072 147.424 77.7557 149.025 76.8182C150.635 75.8712 152.543 75.3977 154.749 75.3977C156.956 75.3977 158.859 75.8712 160.46 76.8182C162.069 77.7557 163.31 79.072 164.181 80.767C165.052 82.4527 165.488 84.4223 165.488 86.6761C165.488 88.911 165.052 90.8759 164.181 92.571C163.31 94.2566 162.069 95.5729 160.46 96.5199C158.859 97.4574 156.956 97.9261 154.749 97.9261ZM154.778 93.2386C155.781 93.2386 156.62 92.9545 157.292 92.3864C157.964 91.8087 158.471 91.0227 158.812 90.0284C159.162 89.0341 159.337 87.9025 159.337 86.6335C159.337 85.3646 159.162 84.233 158.812 83.2386C158.471 82.2443 157.964 81.4583 157.292 80.8807C156.62 80.303 155.781 80.0142 154.778 80.0142C153.764 80.0142 152.912 80.303 152.221 80.8807C151.539 81.4583 151.023 82.2443 150.673 83.2386C150.332 84.233 150.161 85.3646 150.161 86.6335C150.161 87.9025 150.332 89.0341 150.673 90.0284C151.023 91.0227 151.539 91.8087 152.221 92.3864C152.912 92.9545 153.764 93.2386 154.778 93.2386ZM169.423 97.5V75.6818H175.19V79.5312H175.445C175.9 78.2528 176.657 77.2443 177.718 76.5057C178.779 75.767 180.048 75.3977 181.525 75.3977C183.021 75.3977 184.295 75.7718 185.346 76.5199C186.397 77.2585 187.098 78.2623 187.448 79.5312H187.675C188.121 78.2812 188.925 77.2822 190.09 76.5341C191.264 75.7765 192.652 75.3977 194.252 75.3977C196.288 75.3977 197.941 76.0464 199.21 77.3438C200.488 78.6316 201.127 80.4593 201.127 82.8267V97.5H195.09V84.0199C195.09 82.8078 194.768 81.8987 194.124 81.2926C193.48 80.6866 192.675 80.3835 191.71 80.3835C190.611 80.3835 189.754 80.7339 189.138 81.4347C188.523 82.1259 188.215 83.0398 188.215 84.1761V97.5H182.349V83.892C182.349 82.822 182.041 81.9697 181.425 81.3352C180.819 80.7008 180.019 80.3835 179.025 80.3835C178.353 80.3835 177.746 80.554 177.207 80.8949C176.676 81.2263 176.255 81.6951 175.942 82.3011C175.63 82.8977 175.474 83.5985 175.474 84.4034V97.5H169.423ZM205.907 97.5V75.6818H211.674V79.5312H211.93C212.384 78.2528 213.142 77.2443 214.202 76.5057C215.263 75.767 216.532 75.3977 218.009 75.3977C219.505 75.3977 220.779 75.7718 221.83 76.5199C222.881 77.2585 223.582 78.2623 223.933 79.5312H224.16C224.605 78.2812 225.41 77.2822 226.575 76.5341C227.749 75.7765 229.136 75.3977 230.737 75.3977C232.772 75.3977 234.425 76.0464 235.694 77.3438C236.972 78.6316 237.612 80.4593 237.612 82.8267V97.5H231.575V84.0199C231.575 82.8078 231.253 81.8987 230.609 81.2926C229.965 80.6866 229.16 80.3835 228.194 80.3835C227.095 80.3835 226.238 80.7339 225.623 81.4347C225.007 82.1259 224.7 83.0398 224.7 84.1761V97.5H218.833V83.892C218.833 82.822 218.525 81.9697 217.91 81.3352C217.304 80.7008 216.504 80.3835 215.509 80.3835C214.837 80.3835 214.231 80.554 213.691 80.8949C213.161 81.2263 212.739 81.6951 212.427 82.3011C212.114 82.8977 211.958 83.5985 211.958 84.4034V97.5H205.907ZM252.335 97.9261C250.09 97.9261 248.158 97.4716 246.539 96.5625C244.929 95.6439 243.689 94.3466 242.817 92.6705C241.946 90.9848 241.511 88.9915 241.511 86.6903C241.511 84.446 241.946 82.4763 242.817 80.7812C243.689 79.0862 244.915 77.7652 246.496 76.8182C248.087 75.8712 249.953 75.3977 252.093 75.3977C253.532 75.3977 254.872 75.6297 256.113 76.0938C257.363 76.5483 258.452 77.2348 259.38 78.1534C260.317 79.072 261.047 80.2273 261.567 81.6193C262.088 83.0019 262.349 84.6212 262.349 86.4773V88.1392H243.925V84.3892H256.653C256.653 83.518 256.463 82.7462 256.085 82.0739C255.706 81.4015 255.18 80.8759 254.508 80.4972C253.845 80.1089 253.073 79.9148 252.192 79.9148C251.274 79.9148 250.46 80.1278 249.749 80.554C249.049 80.9706 248.499 81.5341 248.102 82.2443C247.704 82.9451 247.5 83.7263 247.491 84.5881V88.1534C247.491 89.233 247.69 90.1657 248.087 90.9517C248.495 91.7377 249.067 92.3438 249.806 92.7699C250.545 93.196 251.421 93.4091 252.434 93.4091C253.106 93.4091 253.722 93.3144 254.281 93.125C254.839 92.9356 255.317 92.6515 255.715 92.2727C256.113 91.8939 256.416 91.4299 256.624 90.8807L262.221 91.25C261.937 92.5947 261.354 93.7689 260.474 94.7727C259.603 95.767 258.476 96.5436 257.093 97.1023C255.72 97.6515 254.134 97.9261 252.335 97.9261ZM266.298 97.5V75.6818H272.164V79.4886H272.391C272.789 78.1345 273.457 77.1117 274.394 76.4205C275.332 75.7197 276.411 75.3693 277.633 75.3693C277.936 75.3693 278.263 75.3883 278.613 75.4261C278.963 75.464 279.271 75.5161 279.536 75.5824V80.9517C279.252 80.8665 278.859 80.7907 278.357 80.7244C277.855 80.6581 277.396 80.625 276.979 80.625C276.089 80.625 275.294 80.8191 274.593 81.2074C273.902 81.5862 273.353 82.1165 272.945 82.7983C272.548 83.4801 272.349 84.2661 272.349 85.1562V97.5H266.298ZM291.507 97.9261C289.272 97.9261 287.35 97.4527 285.74 96.5057C284.14 95.5492 282.909 94.2235 282.047 92.5284C281.195 90.8333 280.768 88.8826 280.768 86.6761C280.768 84.4413 281.199 82.4811 282.061 80.7955C282.932 79.1004 284.168 77.7794 285.768 76.8324C287.369 75.8759 289.272 75.3977 291.479 75.3977C293.382 75.3977 295.049 75.7434 296.479 76.4347C297.909 77.1259 299.04 78.0966 299.874 79.3466C300.707 80.5966 301.166 82.0644 301.251 83.75H295.541C295.38 82.661 294.954 81.785 294.263 81.1222C293.581 80.4498 292.686 80.1136 291.578 80.1136C290.641 80.1136 289.821 80.3693 289.121 80.8807C288.429 81.3826 287.89 82.1165 287.501 83.0824C287.113 84.0483 286.919 85.2178 286.919 86.5909C286.919 87.983 287.108 89.1667 287.487 90.142C287.875 91.1174 288.42 91.8608 289.121 92.3722C289.821 92.8835 290.641 93.1392 291.578 93.1392C292.269 93.1392 292.89 92.9972 293.439 92.7131C293.998 92.429 294.457 92.017 294.817 91.4773C295.186 90.928 295.428 90.2699 295.541 89.5028H301.251C301.157 91.1695 300.702 92.6373 299.888 93.9062C299.083 95.1657 297.97 96.1506 296.55 96.8608C295.129 97.571 293.448 97.9261 291.507 97.9261ZM315.069 97.9261C312.825 97.9261 310.893 97.4716 309.273 96.5625C307.664 95.6439 306.423 94.3466 305.552 92.6705C304.681 90.9848 304.245 88.9915 304.245 86.6903C304.245 84.446 304.681 82.4763 305.552 80.7812C306.423 79.0862 307.649 77.7652 309.231 76.8182C310.822 75.8712 312.687 75.3977 314.827 75.3977C316.267 75.3977 317.607 75.6297 318.847 76.0938C320.097 76.5483 321.186 77.2348 322.114 78.1534C323.052 79.072 323.781 80.2273 324.302 81.6193C324.823 83.0019 325.083 84.6212 325.083 86.4773V88.1392H306.66V84.3892H319.387C319.387 83.518 319.198 82.7462 318.819 82.0739C318.44 81.4015 317.915 80.8759 317.242 80.4972C316.579 80.1089 315.808 79.9148 314.927 79.9148C314.008 79.9148 313.194 80.1278 312.484 80.554C311.783 80.9706 311.234 81.5341 310.836 82.2443C310.438 82.9451 310.235 83.7263 310.225 84.5881V88.1534C310.225 89.233 310.424 90.1657 310.822 90.9517C311.229 91.7377 311.802 92.3438 312.54 92.7699C313.279 93.196 314.155 93.4091 315.168 93.4091C315.841 93.4091 316.456 93.3144 317.015 93.125C317.574 92.9356 318.052 92.6515 318.45 92.2727C318.847 91.8939 319.15 91.4299 319.359 90.8807L324.955 91.25C324.671 92.5947 324.089 93.7689 323.208 94.7727C322.337 95.767 321.21 96.5436 319.827 97.1023C318.454 97.6515 316.868 97.9261 315.069 97.9261Z" fill="black"/>
<path d="M125.506 96.5057L125.249 96.9349L125.252 96.9366L125.506 96.5057ZM121.812 92.5284L121.366 92.753L121.367 92.755L121.812 92.5284ZM121.827 80.7955L121.382 80.5669L121.382 80.5679L121.827 80.7955ZM125.534 76.8324L125.789 77.2627L125.791 77.2616L125.534 76.8324ZM136.244 76.4347L136.462 75.9845L136.462 75.9845L136.244 76.4347ZM139.639 79.3466L139.223 79.6239L139.639 79.3466ZM141.017 83.75V84.25H141.543L141.516 83.7248L141.017 83.75ZM135.307 83.75L134.812 83.8231L134.875 84.25H135.307V83.75ZM134.028 81.1222L133.677 81.4782L133.682 81.483L134.028 81.1222ZM128.886 80.8807L129.18 81.2853L129.181 81.2846L128.886 80.8807ZM127.253 90.142L126.787 90.3231L126.788 90.327L127.253 90.142ZM128.886 92.3722L129.181 91.9683L129.181 91.9683L128.886 92.3722ZM133.205 92.7131L132.978 92.2674L132.975 92.269L133.205 92.7131ZM134.582 91.4773L134.167 91.1983L134.166 91.1999L134.582 91.4773ZM135.307 89.5028V89.0028H134.875L134.812 89.4296L135.307 89.5028ZM141.017 89.5028L141.516 89.5312L141.546 89.0028H141.017V89.5028ZM139.653 93.9062L139.233 93.6362L139.232 93.637L139.653 93.9062ZM136.315 96.8608L136.092 96.4136L136.092 96.4136L136.315 96.8608ZM131.273 97.9261V97.4261C129.109 97.4261 127.278 96.9683 125.759 96.0747L125.506 96.5057L125.252 96.9366C126.953 97.937 128.966 98.4261 131.273 98.4261V97.9261ZM125.506 96.5057L125.762 96.0765C124.244 95.1694 123.078 93.9146 122.258 92.3018L121.812 92.5284L121.367 92.755C122.27 94.5323 123.566 95.9291 125.249 96.9349L125.506 96.5057ZM121.812 92.5284L122.259 92.3038C121.447 90.6889 121.034 88.8173 121.034 86.6761H120.534H120.034C120.034 88.9479 120.473 90.9777 121.366 92.753L121.812 92.5284ZM120.534 86.6761H121.034C121.034 84.5062 121.452 82.6265 122.272 81.0231L121.827 80.7955L121.382 80.5679C120.478 82.3356 120.034 84.3764 120.034 86.6761H120.534ZM121.827 80.7955L122.271 81.024C123.101 79.4106 124.272 78.1604 125.789 77.2627L125.534 76.8324L125.279 76.4021C123.596 77.3983 122.295 78.7902 121.382 80.5669L121.827 80.7955ZM125.534 76.8324L125.791 77.2616C127.3 76.3594 129.111 75.8977 131.244 75.8977V75.3977V74.8977C128.964 74.8977 126.969 75.3925 125.278 76.4032L125.534 76.8324ZM131.244 75.3977V75.8977C133.087 75.8977 134.677 76.2322 136.027 76.8848L136.244 76.4347L136.462 75.9845C134.952 75.2545 133.208 74.8977 131.244 74.8977V75.3977ZM136.244 76.4347L136.027 76.8848C137.381 77.5396 138.442 78.4525 139.223 79.6239L139.639 79.3466L140.055 79.0692C139.17 77.7407 137.967 76.7123 136.462 75.9845L136.244 76.4347ZM139.639 79.3466L139.223 79.6239C140.001 80.79 140.436 82.1683 140.518 83.7752L141.017 83.75L141.516 83.7248C141.427 81.9605 140.945 80.4032 140.055 79.0692L139.639 79.3466ZM141.017 83.75V83.25H135.307V83.75V84.25H141.017V83.75ZM135.307 83.75L135.801 83.6769C135.627 82.4953 135.158 81.5121 134.374 80.7613L134.028 81.1222L133.682 81.483C134.282 82.0579 134.665 82.8267 134.812 83.8231L135.307 83.75ZM134.028 81.1222L134.379 80.7661C133.589 79.987 132.561 79.6136 131.344 79.6136V80.1136V80.6136C132.343 80.6136 133.104 80.9126 133.677 81.4782L134.028 81.1222ZM131.344 80.1136V79.6136C130.309 79.6136 129.385 79.8978 128.592 80.4768L128.886 80.8807L129.181 81.2846C129.789 80.8408 130.503 80.6136 131.344 80.6136V80.1136ZM128.886 80.8807L128.593 80.4761C127.81 81.0442 127.219 81.8619 126.803 82.8959L127.267 83.0824L127.731 83.2689C128.092 82.3711 128.58 81.7209 129.18 81.2853L128.886 80.8807ZM127.267 83.0824L126.803 82.8959C126.385 83.9367 126.185 85.1732 126.185 86.5909H126.685H127.185C127.185 85.2624 127.373 84.1599 127.731 83.2689L127.267 83.0824ZM126.685 86.5909H126.185C126.185 88.0256 126.379 89.2744 126.787 90.323L127.253 90.142L127.719 89.961C127.369 89.059 127.185 87.9403 127.185 86.5909H126.685ZM127.253 90.142L126.788 90.327C127.204 91.3714 127.8 92.1985 128.592 92.7761L128.886 92.3722L129.181 91.9683C128.571 91.5231 128.078 90.8635 127.717 89.9571L127.253 90.142ZM128.886 92.3722L128.592 92.7761C129.385 93.355 130.309 93.6392 131.344 93.6392V93.1392V92.6392C130.503 92.6392 129.789 92.4121 129.181 91.9683L128.886 92.3722ZM131.344 93.1392V93.6392C132.105 93.6392 132.806 93.4821 133.434 93.1572L133.205 92.7131L132.975 92.269C132.505 92.5122 131.965 92.6392 131.344 92.6392V93.1392ZM133.205 92.7131L133.431 93.1588C134.069 92.8344 134.593 92.3632 134.998 91.7546L134.582 91.4773L134.166 91.1999C133.852 91.6709 133.457 92.0236 132.978 92.2674L133.205 92.7131ZM134.582 91.4773L134.997 91.7563C135.415 91.1355 135.679 90.4043 135.801 89.5761L135.307 89.5028L134.812 89.4296C134.708 90.1355 134.489 90.7206 134.167 91.1983L134.582 91.4773ZM135.307 89.5028V90.0028H141.017V89.5028V89.0028H135.307V89.5028ZM141.017 89.5028L140.518 89.4745C140.428 91.0646 139.996 92.4473 139.233 93.6362L139.653 93.9062L140.074 94.1763C140.94 92.8273 141.417 91.2744 141.516 89.5312L141.017 89.5028ZM139.653 93.9062L139.232 93.637C138.479 94.8156 137.437 95.7411 136.092 96.4136L136.315 96.8608L136.539 97.308C138.035 96.56 139.218 95.5159 140.075 94.1755L139.653 93.9062ZM136.315 96.8608L136.092 96.4136C134.754 97.0822 133.153 97.4261 131.273 97.4261V97.9261V98.4261C133.275 98.4261 135.035 98.0598 136.539 97.308L136.315 96.8608ZM149.025 96.5199L148.77 96.9502L148.773 96.952L149.025 96.5199ZM145.317 92.571L144.873 92.7996L144.873 92.8006L145.317 92.571ZM145.317 80.767L145.762 80.9966L145.762 80.9956L145.317 80.767ZM149.025 76.8182L149.278 77.2496L149.278 77.2491L149.025 76.8182ZM160.46 76.8182L160.205 77.2485L160.208 77.2503L160.46 76.8182ZM164.181 80.767L163.736 80.9956L163.737 80.9966L164.181 80.767ZM164.181 92.571L164.625 92.8006L164.626 92.7996L164.181 92.571ZM160.46 96.5199L160.712 96.9513L160.713 96.9509L160.46 96.5199ZM157.292 92.3864L157.615 92.7683L157.618 92.7656L157.292 92.3864ZM158.812 90.0284L158.34 89.8622L158.339 89.8662L158.812 90.0284ZM158.812 83.2386L158.339 83.4008L158.34 83.4048L158.812 83.2386ZM152.221 80.8807L151.9 80.497L151.898 80.4992L152.221 80.8807ZM150.673 83.2386L150.201 83.0725L150.2 83.0765L150.673 83.2386ZM150.673 90.0284L150.2 90.1906L150.201 90.1946L150.673 90.0284ZM152.221 92.3864L151.898 92.7679L151.903 92.7726L152.221 92.3864ZM154.749 97.9261V97.4261C152.615 97.4261 150.797 96.9732 149.276 96.0878L149.025 96.5199L148.773 96.952C150.473 97.9415 152.471 98.4261 154.749 98.4261V97.9261ZM149.025 96.5199L149.279 96.0896C147.762 95.1914 146.591 93.9455 145.762 92.3414L145.317 92.571L144.873 92.8006C145.787 94.5678 147.087 95.9544 148.77 96.9502L149.025 96.5199ZM145.317 92.571L145.762 92.3425C144.933 90.7294 144.511 88.8452 144.511 86.6761H144.011H143.511C143.511 88.9768 143.959 91.0225 144.873 92.7996L145.317 92.571ZM144.011 86.6761H144.511C144.511 84.4873 144.933 82.5991 145.762 80.9966L145.317 80.767L144.873 80.5375C143.959 82.3062 143.511 84.3574 143.511 86.6761H144.011ZM145.317 80.767L145.762 80.9956C146.591 79.3826 147.762 78.1377 149.278 77.2496L149.025 76.8182L148.772 76.3868C147.087 77.3736 145.786 78.7614 144.873 80.5385L145.317 80.767ZM149.025 76.8182L149.278 77.2491C150.798 76.355 152.616 75.8977 154.749 75.8977V75.3977V74.8977C152.47 74.8977 150.471 75.3874 148.771 76.3872L149.025 76.8182ZM154.749 75.3977V75.8977C156.883 75.8977 158.695 76.355 160.205 77.2485L160.46 76.8182L160.714 76.3879C159.023 75.3874 157.028 74.8977 154.749 74.8977V75.3977ZM160.46 76.8182L160.208 77.2503C161.733 78.1386 162.908 79.3833 163.736 80.9956L164.181 80.767L164.626 80.5385C163.712 78.7606 162.405 77.3728 160.711 76.3861L160.46 76.8182ZM164.181 80.767L163.737 80.9966C164.565 82.5991 164.988 84.4873 164.988 86.6761H165.488H165.988C165.988 84.3574 165.539 82.3062 164.625 80.5375L164.181 80.767ZM165.488 86.6761H164.988C164.988 88.8452 164.565 90.7294 163.736 92.3425L164.181 92.571L164.626 92.7996C165.539 91.0225 165.988 88.9768 165.988 86.6761H165.488ZM164.181 92.571L163.737 92.3414C162.908 93.9447 161.733 95.1906 160.206 96.0889L160.46 96.5199L160.713 96.9509C162.406 95.9553 163.712 94.5686 164.625 92.8006L164.181 92.571ZM160.46 96.5199L160.207 96.0885C158.696 96.9732 156.884 97.4261 154.749 97.4261V97.9261V98.4261C157.028 98.4261 159.022 97.9416 160.712 96.9513L160.46 96.5199ZM154.778 93.2386V93.7386C155.882 93.7386 156.839 93.4233 157.615 92.7683L157.292 92.3864L156.969 92.0045C156.4 92.4858 155.681 92.7386 154.778 92.7386V93.2386ZM157.292 92.3864L157.618 92.7656C158.369 92.12 158.92 91.2533 159.285 90.1906L158.812 90.0284L158.339 89.8662C158.021 90.7921 157.559 91.4974 156.966 92.0071L157.292 92.3864ZM158.812 90.0284L159.283 90.1946C159.656 89.1373 159.837 87.9479 159.837 86.6335H159.337H158.837C158.837 87.857 158.668 88.9309 158.34 89.8622L158.812 90.0284ZM159.337 86.6335H159.837C159.837 85.3192 159.656 84.1298 159.283 83.0725L158.812 83.2386L158.34 83.4048C158.668 84.3361 158.837 85.41 158.837 86.6335H159.337ZM158.812 83.2386L159.285 83.0765C158.92 82.0137 158.369 81.147 157.618 80.5014L157.292 80.8807L156.966 81.2599C157.559 81.7696 158.021 82.4749 158.339 83.4008L158.812 83.2386ZM157.292 80.8807L157.618 80.5014C156.843 79.8355 155.884 79.5142 154.778 79.5142V80.0142V80.5142C155.679 80.5142 156.396 80.7705 156.966 81.2599L157.292 80.8807ZM154.778 80.0142V79.5142C153.663 79.5142 152.693 79.8348 151.9 80.497L152.221 80.8807L152.541 81.2644C153.132 80.7713 153.866 80.5142 154.778 80.5142V80.0142ZM152.221 80.8807L151.898 80.4992C151.137 81.1437 150.576 82.0096 150.201 83.0725L150.673 83.2386L151.144 83.4048C151.47 82.479 151.941 81.7729 152.544 81.2622L152.221 80.8807ZM150.673 83.2386L150.2 83.0765C149.838 84.1325 149.661 85.3205 149.661 86.6335H150.161H150.661C150.661 85.4087 150.826 84.3334 151.146 83.4008L150.673 83.2386ZM150.161 86.6335H149.661C149.661 87.9466 149.838 89.1345 150.2 90.1906L150.673 90.0284L151.146 89.8662C150.826 88.9337 150.661 87.8584 150.661 86.6335H150.161ZM150.673 90.0284L150.201 90.1946C150.576 91.2574 151.137 92.1233 151.898 92.7679L152.221 92.3864L152.544 92.0049C151.941 91.4941 151.47 90.788 151.144 89.8622L150.673 90.0284ZM152.221 92.3864L151.903 92.7726C152.696 93.424 153.665 93.7386 154.778 93.7386V93.2386V92.7386C153.864 92.7386 153.128 92.4851 152.538 92.0001L152.221 92.3864ZM169.423 97.5H168.923V98H169.423V97.5ZM169.423 75.6818V75.1818H168.923V75.6818H169.423ZM175.19 75.6818H175.69V75.1818H175.19V75.6818ZM175.19 79.5312H174.69V80.0312H175.19V79.5312ZM175.445 79.5312V80.0312H175.798L175.916 79.6988L175.445 79.5312ZM177.718 76.5057L177.432 76.0954L177.432 76.0954L177.718 76.5057ZM185.346 76.5199L185.056 76.9273L185.058 76.929L185.346 76.5199ZM187.448 79.5312L186.966 79.6643L187.068 80.0312H187.448V79.5312ZM187.675 79.5312V80.0312H188.028L188.146 79.699L187.675 79.5312ZM190.09 76.5341L190.36 76.9548L190.361 76.9542L190.09 76.5341ZM199.21 77.3438L198.852 77.6934L198.855 77.696L199.21 77.3438ZM201.127 97.5V98H201.627V97.5H201.127ZM195.09 97.5H194.59V98H195.09V97.5ZM194.124 81.2926L193.782 81.6567L193.782 81.6567L194.124 81.2926ZM189.138 81.4347L189.512 81.7672L189.514 81.7646L189.138 81.4347ZM188.215 97.5V98H188.715V97.5H188.215ZM182.349 97.5H181.849V98H182.349V97.5ZM181.425 81.3352L181.064 81.6806L181.067 81.6834L181.425 81.3352ZM177.207 80.8949L177.472 81.3189L177.474 81.3176L177.207 80.8949ZM175.942 82.3011L176.385 82.5331L176.387 82.5303L175.942 82.3011ZM175.474 97.5V98H175.974V97.5H175.474ZM169.423 97.5H169.923V75.6818H169.423H168.923V97.5H169.423ZM169.423 75.6818V76.1818H175.19V75.6818V75.1818H169.423V75.6818ZM175.19 75.6818H174.69V79.5312H175.19H175.69V75.6818H175.19ZM175.19 79.5312V80.0312H175.445V79.5312V79.0312H175.19V79.5312ZM175.445 79.5312L175.916 79.6988C176.338 78.5134 177.033 77.5919 178.004 76.916L177.718 76.5057L177.432 76.0954C176.282 76.8967 175.462 77.9923 174.974 79.3637L175.445 79.5312ZM177.718 76.5057L178.004 76.916C178.969 76.2438 180.135 75.8977 181.525 75.8977V75.3977V74.8977C179.961 74.8977 178.588 75.2903 177.432 76.0954L177.718 76.5057ZM181.525 75.3977V75.8977C182.934 75.8977 184.102 76.2486 185.056 76.9272L185.346 76.5199L185.636 76.1125C184.487 75.2949 183.108 74.8977 181.525 74.8977V75.3977ZM185.346 76.5199L185.058 76.929C186.012 77.5992 186.646 78.5042 186.966 79.6643L187.448 79.5312L187.93 79.3982C187.55 78.0205 186.782 76.9179 185.633 76.1108L185.346 76.5199ZM187.448 79.5312V80.0312H187.675V79.5312V79.0312H187.448V79.5312ZM187.675 79.5312L188.146 79.699C188.553 78.5579 189.284 77.6459 190.36 76.9548L190.09 76.5341L189.82 76.1134C188.566 76.9185 187.688 78.0046 187.204 79.3635L187.675 79.5312ZM190.09 76.5341L190.361 76.9542C191.443 76.256 192.734 75.8977 194.252 75.8977V75.3977V74.8977C192.57 74.8977 191.085 75.297 189.819 76.1139L190.09 76.5341ZM194.252 75.3977V75.8977C196.172 75.8977 197.689 76.5043 198.852 77.6934L199.21 77.3438L199.567 76.9941C198.192 75.5885 196.405 74.8977 194.252 74.8977V75.3977ZM199.21 77.3438L198.855 77.696C200.014 78.8642 200.627 80.5494 200.627 82.8267H201.127H201.627C201.627 80.3691 200.962 78.399 199.564 76.9915L199.21 77.3438ZM201.127 82.8267H200.627V97.5H201.127H201.627V82.8267H201.127ZM201.127 97.5V97H195.09V97.5V98H201.127V97.5ZM195.09 97.5H195.59V84.0199H195.09H194.59V97.5H195.09ZM195.09 84.0199H195.59C195.59 82.7227 195.244 81.66 194.467 80.9285L194.124 81.2926L193.782 81.6567C194.292 82.1374 194.59 82.8928 194.59 84.0199H195.09ZM194.124 81.2926L194.467 80.9285C193.721 80.2268 192.79 79.8835 191.71 79.8835V80.3835V80.8835C192.561 80.8835 193.239 81.1464 193.782 81.6567L194.124 81.2926ZM191.71 80.3835V79.8835C190.495 79.8835 189.49 80.2764 188.763 81.1047L189.138 81.4347L189.514 81.7646C190.018 81.1914 190.727 80.8835 191.71 80.8835V80.3835ZM189.138 81.4347L188.765 81.1022C188.051 81.9047 187.715 82.9463 187.715 84.1761H188.215H188.715C188.715 83.1332 188.995 82.3472 189.512 81.7672L189.138 81.4347ZM188.215 84.1761H187.715V97.5H188.215H188.715V84.1761H188.215ZM188.215 97.5V97H182.349V97.5V98H188.215V97.5ZM182.349 97.5H182.849V83.892H182.349H181.849V97.5H182.349ZM182.349 83.892H182.849C182.849 82.7211 182.509 81.7338 181.784 80.9871L181.425 81.3352L181.067 81.6834C181.573 82.2056 181.849 82.9229 181.849 83.892H182.349ZM181.425 81.3352L181.787 80.9899C181.074 80.2431 180.136 79.8835 179.025 79.8835V80.3835V80.8835C179.903 80.8835 180.565 81.1584 181.064 81.6806L181.425 81.3352ZM179.025 80.3835V79.8835C178.263 79.8835 177.564 80.078 176.94 80.4721L177.207 80.8949L177.474 81.3176C177.929 81.0299 178.442 80.8835 179.025 80.8835V80.3835ZM177.207 80.8949L176.942 80.4709C176.328 80.8542 175.848 81.3935 175.498 82.072L175.942 82.3011L176.387 82.5303C176.662 81.9967 177.024 81.5984 177.472 81.3189L177.207 80.8949ZM175.942 82.3011L175.5 82.0691C175.143 82.75 174.974 83.5334 174.974 84.4034H175.474H175.974C175.974 83.6636 176.117 83.0454 176.385 82.5331L175.942 82.3011ZM175.474 84.4034H174.974V97.5H175.474H175.974V84.4034H175.474ZM175.474 97.5V97H169.423V97.5V98H175.474V97.5ZM205.907 97.5H205.407V98H205.907V97.5ZM205.907 75.6818V75.1818H205.407V75.6818H205.907ZM211.674 75.6818H212.174V75.1818H211.674V75.6818ZM211.674 79.5312H211.174V80.0312H211.674V79.5312ZM211.93 79.5312V80.0312H212.283L212.401 79.6988L211.93 79.5312ZM214.202 76.5057L213.917 76.0954L213.917 76.0954L214.202 76.5057ZM221.83 76.5199L221.54 76.9273L221.543 76.929L221.83 76.5199ZM223.933 79.5312L223.451 79.6643L223.552 80.0312H223.933V79.5312ZM224.16 79.5312V80.0312H224.513L224.631 79.699L224.16 79.5312ZM226.575 76.5341L226.845 76.9548L226.846 76.9542L226.575 76.5341ZM235.694 77.3438L235.336 77.6934L235.339 77.696L235.694 77.3438ZM237.612 97.5V98H238.112V97.5H237.612ZM231.575 97.5H231.075V98H231.575V97.5ZM230.609 81.2926L230.266 81.6567L230.266 81.6567L230.609 81.2926ZM225.623 81.4347L225.996 81.7672L225.999 81.7646L225.623 81.4347ZM224.7 97.5V98H225.2V97.5H224.7ZM218.833 97.5H218.333V98H218.833V97.5ZM217.91 81.3352L217.548 81.6806L217.551 81.6834L217.91 81.3352ZM213.691 80.8949L213.956 81.3189L213.958 81.3176L213.691 80.8949ZM212.427 82.3011L212.87 82.5331L212.871 82.5303L212.427 82.3011ZM211.958 97.5V98H212.458V97.5H211.958ZM205.907 97.5H206.407V75.6818H205.907H205.407V97.5H205.907ZM205.907 75.6818V76.1818H211.674V75.6818V75.1818H205.907V75.6818ZM211.674 75.6818H211.174V79.5312H211.674H212.174V75.6818H211.674ZM211.674 79.5312V80.0312H211.93V79.5312V79.0312H211.674V79.5312ZM211.93 79.5312L212.401 79.6988C212.822 78.5134 213.518 77.5919 214.488 76.916L214.202 76.5057L213.917 76.0954C212.766 76.8967 211.946 77.9923 211.459 79.3637L211.93 79.5312ZM214.202 76.5057L214.488 76.916C215.453 76.2438 216.619 75.8977 218.009 75.8977V75.3977V74.8977C216.445 74.8977 215.073 75.2903 213.917 76.0954L214.202 76.5057ZM218.009 75.3977V75.8977C219.419 75.8977 220.587 76.2486 221.54 76.9272L221.83 76.5199L222.12 76.1125C220.971 75.2949 219.592 74.8977 218.009 74.8977V75.3977ZM221.83 76.5199L221.543 76.929C222.497 77.5992 223.13 78.5042 223.451 79.6643L223.933 79.5312L224.414 79.3982C224.034 78.0205 223.266 76.9179 222.118 76.1108L221.83 76.5199ZM223.933 79.5312V80.0312H224.16V79.5312V79.0312H223.933V79.5312ZM224.16 79.5312L224.631 79.699C225.037 78.5579 225.769 77.6459 226.845 76.9548L226.575 76.5341L226.304 76.1134C225.051 76.9185 224.173 78.0046 223.689 79.3635L224.16 79.5312ZM226.575 76.5341L226.846 76.9542C227.928 76.256 229.218 75.8977 230.737 75.8977V75.3977V74.8977C229.054 74.8977 227.57 75.297 226.304 76.1139L226.575 76.5341ZM230.737 75.3977V75.8977C232.656 75.8977 234.173 76.5043 235.336 77.6934L235.694 77.3438L236.051 76.9941C234.676 75.5885 232.889 74.8977 230.737 74.8977V75.3977ZM235.694 77.3438L235.339 77.696C236.499 78.8642 237.112 80.5494 237.112 82.8267H237.612H238.112C238.112 80.3691 237.446 78.399 236.049 76.9915L235.694 77.3438ZM237.612 82.8267H237.112V97.5H237.612H238.112V82.8267H237.612ZM237.612 97.5V97H231.575V97.5V98H237.612V97.5ZM231.575 97.5H232.075V84.0199H231.575H231.075V97.5H231.575ZM231.575 84.0199H232.075C232.075 82.7227 231.729 81.66 230.951 80.9285L230.609 81.2926L230.266 81.6567C230.777 82.1374 231.075 82.8928 231.075 84.0199H231.575ZM230.609 81.2926L230.951 80.9285C230.206 80.2268 229.274 79.8835 228.194 79.8835V80.3835V80.8835C229.045 80.8835 229.724 81.1464 230.266 81.6567L230.609 81.2926ZM228.194 80.3835V79.8835C226.98 79.8835 225.975 80.2764 225.247 81.1047L225.623 81.4347L225.999 81.7646C226.502 81.1914 227.211 80.8835 228.194 80.8835V80.3835ZM225.623 81.4347L225.249 81.1022C224.535 81.9047 224.2 82.9463 224.2 84.1761H224.7H225.2C225.2 83.1332 225.48 82.3472 225.996 81.7672L225.623 81.4347ZM224.7 84.1761H224.2V97.5H224.7H225.2V84.1761H224.7ZM224.7 97.5V97H218.833V97.5V98H224.7V97.5ZM218.833 97.5H219.333V83.892H218.833H218.333V97.5H218.833ZM218.833 83.892H219.333C219.333 82.7211 218.993 81.7338 218.269 80.9871L217.91 81.3352L217.551 81.6834C218.058 82.2056 218.333 82.9229 218.333 83.892H218.833ZM217.91 81.3352L218.271 80.9899C217.558 80.2431 216.62 79.8835 215.509 79.8835V80.3835V80.8835C216.387 80.8835 217.049 81.1584 217.548 81.6806L217.91 81.3352ZM215.509 80.3835V79.8835C214.748 79.8835 214.048 80.078 213.424 80.4721L213.691 80.8949L213.958 81.3176C214.414 81.0299 214.926 80.8835 215.509 80.8835V80.3835ZM213.691 80.8949L213.426 80.4709C212.813 80.8542 212.332 81.3935 211.982 82.072L212.427 82.3011L212.871 82.5303C213.146 81.9967 213.509 81.5984 213.956 81.3189L213.691 80.8949ZM212.427 82.3011L211.984 82.0691C211.627 82.75 211.458 83.5334 211.458 84.4034H211.958H212.458C212.458 83.6636 212.601 83.0454 212.87 82.5331L212.427 82.3011ZM211.958 84.4034H211.458V97.5H211.958H212.458V84.4034H211.958ZM211.958 97.5V97H205.907V97.5V98H211.958V97.5ZM246.539 96.5625L246.291 96.9968L246.294 96.9985L246.539 96.5625ZM242.817 92.6705L242.373 92.9L242.374 92.9011L242.817 92.6705ZM242.817 80.7812L242.373 80.5527L242.373 80.5527L242.817 80.7812ZM246.496 76.8182L246.241 76.3885L246.24 76.3892L246.496 76.8182ZM256.113 76.0938L255.938 76.5621L255.942 76.5636L256.113 76.0938ZM259.38 78.1534L259.028 78.5088L259.03 78.5106L259.38 78.1534ZM261.567 81.6193L261.099 81.7945L261.1 81.7956L261.567 81.6193ZM262.349 88.1392V88.6392H262.849V88.1392H262.349ZM243.925 88.1392H243.425V88.6392H243.925V88.1392ZM243.925 84.3892V83.8892H243.425V84.3892H243.925ZM256.653 84.3892V84.8892H257.153V84.3892H256.653ZM256.085 82.0739L255.649 82.3193L255.649 82.3193L256.085 82.0739ZM254.508 80.4972L254.255 80.9287L254.262 80.9328L254.508 80.4972ZM249.749 80.554L250.005 80.9837L250.007 80.9827L249.749 80.554ZM248.102 82.2443L248.536 82.4911L248.538 82.4886L248.102 82.2443ZM247.491 84.5881L246.991 84.5826V84.5881H247.491ZM248.087 90.9517L247.641 91.1775L247.643 91.1817L248.087 90.9517ZM254.281 93.125L254.12 92.6515L254.12 92.6515L254.281 93.125ZM255.715 92.2727L255.37 91.9107L255.37 91.9107L255.715 92.2727ZM256.624 90.8807L256.657 90.3818L256.288 90.3574L256.157 90.7034L256.624 90.8807ZM262.221 91.25L262.71 91.3534L262.829 90.7891L262.254 90.7511L262.221 91.25ZM260.474 94.7727L260.098 94.443L260.098 94.4432L260.474 94.7727ZM257.093 97.1023L257.279 97.5665L257.28 97.5659L257.093 97.1023ZM252.335 97.9261V97.4261C250.158 97.4261 248.314 96.9857 246.784 96.1265L246.539 96.5625L246.294 96.9985C248.002 97.9575 250.022 98.4261 252.335 98.4261V97.9261ZM246.539 96.5625L246.787 96.1282C245.262 95.2583 244.089 94.0324 243.261 92.4399L242.817 92.6705L242.374 92.9011C243.288 94.6608 244.596 96.0296 246.291 96.9968L246.539 96.5625ZM242.817 92.6705L243.262 92.4409C242.434 90.8398 242.011 88.9284 242.011 86.6903H241.511H241.011C241.011 89.0546 241.458 91.1299 242.373 92.9L242.817 92.6705ZM241.511 86.6903H242.011C242.011 84.5114 242.433 82.6226 243.262 81.0098L242.817 80.7812L242.373 80.5527C241.459 82.33 241.011 84.3806 241.011 86.6903H241.511ZM242.817 80.7812L243.262 81.0098C244.092 79.3948 245.255 78.1445 246.753 77.2472L246.496 76.8182L246.24 76.3892C244.575 77.3858 243.285 78.7775 242.373 80.5527L242.817 80.7812ZM246.496 76.8182L246.752 77.2478C248.254 76.3537 250.029 75.8977 252.093 75.8977V75.3977V74.8977C249.877 74.8977 247.92 75.3887 246.241 76.3885L246.496 76.8182ZM252.093 75.3977V75.8977C253.478 75.8977 254.758 76.1208 255.938 76.5621L256.113 76.0938L256.288 75.6254C254.987 75.1387 253.587 74.8977 252.093 74.8977V75.3977ZM256.113 76.0938L255.942 76.5636C257.126 76.994 258.152 77.642 259.028 78.5088L259.38 78.1534L259.732 77.798C258.751 76.8277 257.6 76.1026 256.284 75.6239L256.113 76.0938ZM259.38 78.1534L259.03 78.5106C259.909 79.3715 260.601 80.462 261.099 81.7945L261.567 81.6193L262.036 81.4441C261.493 79.9926 260.726 78.7725 259.73 77.7963L259.38 78.1534ZM261.567 81.6193L261.1 81.7956C261.595 83.1094 261.849 84.6666 261.849 86.4773H262.349H262.849C262.849 84.5758 262.582 82.8943 262.035 81.4431L261.567 81.6193ZM262.349 86.4773H261.849V88.1392H262.349H262.849V86.4773H262.349ZM262.349 88.1392V87.6392H243.925V88.1392V88.6392H262.349V88.1392ZM243.925 88.1392H244.425V84.3892H243.925H243.425V88.1392H243.925ZM243.925 84.3892V84.8892H256.653V84.3892V83.8892H243.925V84.3892ZM256.653 84.3892H257.153C257.153 83.4433 256.946 82.585 256.52 81.8284L256.085 82.0739L255.649 82.3193C255.98 82.9075 256.153 83.5927 256.153 84.3892H256.653ZM256.085 82.0739L256.52 81.8284C256.097 81.0765 255.505 80.4852 254.753 80.0615L254.508 80.4972L254.262 80.9328C254.855 81.2667 255.315 81.7265 255.649 82.3193L256.085 82.0739ZM254.508 80.4972L254.761 80.0657C254.01 79.6263 253.149 79.4148 252.192 79.4148V79.9148V80.4148C252.998 80.4148 253.68 80.5915 254.255 80.9286L254.508 80.4972ZM252.192 79.9148V79.4148C251.193 79.4148 250.288 79.6475 249.492 80.1252L249.749 80.554L250.007 80.9827C250.631 80.6082 251.354 80.4148 252.192 80.4148V79.9148ZM249.749 80.554L249.494 80.1242C248.718 80.5857 248.106 81.213 247.665 82L248.102 82.2443L248.538 82.4886C248.893 81.8551 249.379 81.3556 250.005 80.9837L249.749 80.554ZM248.102 82.2443L247.667 81.9975C247.224 82.777 247.001 83.6423 246.991 84.5826L247.491 84.5881L247.991 84.5936C247.999 83.8104 248.183 83.1131 248.536 82.4911L248.102 82.2443ZM247.491 84.5881H246.991V88.1534H247.491H247.991V84.5881H247.491ZM247.491 88.1534H246.991C246.991 89.294 247.201 90.3075 247.641 91.1775L248.087 90.9517L248.533 90.726C248.178 90.024 247.991 89.1719 247.991 88.1534H247.491ZM248.087 90.9517L247.643 91.1817C248.093 92.0491 248.732 92.7272 249.556 93.203L249.806 92.7699L250.056 92.3368C249.403 91.9603 248.896 91.4262 248.531 90.7217L248.087 90.9517ZM249.806 92.7699L249.556 93.203C250.384 93.6805 251.35 93.9091 252.434 93.9091V93.4091V92.9091C251.492 92.9091 250.705 92.7115 250.056 92.3368L249.806 92.7699ZM252.434 93.4091V93.9091C253.153 93.9091 253.824 93.8077 254.441 93.5985L254.281 93.125L254.12 92.6515C253.62 92.8211 253.059 92.9091 252.434 92.9091V93.4091ZM254.281 93.125L254.441 93.5985C255.063 93.3876 255.606 93.0673 256.06 92.6348L255.715 92.2727L255.37 91.9107C255.029 92.2357 254.615 92.4836 254.12 92.6515L254.281 93.125ZM255.715 92.2727L256.06 92.6348C256.516 92.2008 256.859 91.6723 257.092 91.058L256.624 90.8807L256.157 90.7034C255.973 91.1876 255.71 91.587 255.37 91.9107L255.715 92.2727ZM256.624 90.8807L256.591 91.3796L262.188 91.7489L262.221 91.25L262.254 90.7511L256.657 90.3818L256.624 90.8807ZM262.221 91.25L261.732 91.1466C261.465 92.41 260.92 93.5056 260.098 94.443L260.474 94.7727L260.85 95.1025C261.789 94.0323 262.409 92.7794 262.71 91.3534L262.221 91.25ZM260.474 94.7727L260.098 94.4432C259.284 95.3715 258.225 96.1055 256.906 96.6387L257.093 97.1023L257.28 97.5659C258.726 96.9816 259.921 96.1625 260.85 95.1022L260.474 94.7727ZM257.093 97.1023L256.907 96.638C255.605 97.1591 254.084 97.4261 252.335 97.4261V97.9261V98.4261C254.184 98.4261 255.835 98.1439 257.279 97.5665L257.093 97.1023ZM266.298 97.5H265.798V98H266.298V97.5ZM266.298 75.6818V75.1818H265.798V75.6818H266.298ZM272.164 75.6818H272.664V75.1818H272.164V75.6818ZM272.164 79.4886H271.664V79.9886H272.164V79.4886ZM272.391 79.4886V79.9886H272.766L272.871 79.6295L272.391 79.4886ZM274.394 76.4205L274.691 76.8229L274.694 76.8209L274.394 76.4205ZM278.613 75.4261L278.667 74.929L278.667 74.929L278.613 75.4261ZM279.536 75.5824H280.036V75.192L279.657 75.0973L279.536 75.5824ZM279.536 80.9517L279.393 81.4306L280.036 81.6237V80.9517H279.536ZM274.593 81.2074L274.833 81.6459L274.835 81.6447L274.593 81.2074ZM272.945 82.7983L272.516 82.5419L272.513 82.5464L272.945 82.7983ZM272.349 97.5V98H272.849V97.5H272.349ZM266.298 97.5H266.798V75.6818H266.298H265.798V97.5H266.298ZM266.298 75.6818V76.1818H272.164V75.6818V75.1818H266.298V75.6818ZM272.164 75.6818H271.664V79.4886H272.164H272.664V75.6818H272.164ZM272.164 79.4886V79.9886H272.391V79.4886V78.9886H272.164V79.4886ZM272.391 79.4886L272.871 79.6295C273.245 78.3574 273.859 77.4365 274.691 76.8229L274.394 76.4205L274.097 76.018C273.055 76.787 272.333 77.9115 271.912 79.3477L272.391 79.4886ZM274.394 76.4205L274.694 76.8209C275.541 76.1877 276.514 75.8693 277.633 75.8693V75.3693V74.8693C276.308 74.8693 275.123 75.2516 274.095 76.02L274.394 76.4205ZM277.633 75.3693V75.8693C277.915 75.8693 278.224 75.887 278.559 75.9232L278.613 75.4261L278.667 74.929C278.301 74.8895 277.956 74.8693 277.633 74.8693V75.3693ZM278.613 75.4261L278.559 75.9232C278.893 75.9593 279.177 76.008 279.415 76.0675L279.536 75.5824L279.657 75.0973C279.365 75.0242 279.034 74.9687 278.667 74.929L278.613 75.4261ZM279.536 75.5824H279.036V80.9517H279.536H280.036V75.5824H279.536ZM279.536 80.9517L279.68 80.4728C279.359 80.3764 278.935 80.2964 278.423 80.2287L278.357 80.7244L278.292 81.2201C278.783 81.285 279.146 81.3566 279.393 81.4306L279.536 80.9517ZM278.357 80.7244L278.423 80.2287C277.904 80.1602 277.422 80.125 276.979 80.125V80.625V81.125C277.37 81.125 277.807 81.1561 278.292 81.2201L278.357 80.7244ZM276.979 80.625V80.125C276.014 80.125 275.134 80.3363 274.351 80.77L274.593 81.2074L274.835 81.6447C275.454 81.302 276.164 81.125 276.979 81.125V80.625ZM274.593 81.2074L274.353 80.7689C273.583 81.1908 272.969 81.7843 272.516 82.5419L272.945 82.7983L273.375 83.0547C273.736 82.4487 274.221 81.9815 274.833 81.6459L274.593 81.2074ZM272.945 82.7983L272.513 82.5464C272.066 83.314 271.849 84.1891 271.849 85.1562H272.349H272.849C272.849 84.3431 273.03 83.6462 273.377 83.0502L272.945 82.7983ZM272.349 85.1562H271.849V97.5H272.349H272.849V85.1562H272.349ZM272.349 97.5V97H266.298V97.5V98H272.349V97.5ZM285.74 96.5057L285.484 96.9349L285.487 96.9366L285.74 96.5057ZM282.047 92.5284L281.6 92.753L281.601 92.755L282.047 92.5284ZM282.061 80.7955L281.616 80.5669L281.616 80.5679L282.061 80.7955ZM285.768 76.8324L286.023 77.2627L286.025 77.2616L285.768 76.8324ZM296.479 76.4347L296.696 75.9845L296.696 75.9845L296.479 76.4347ZM299.874 79.3466L299.458 79.6239L299.874 79.3466ZM301.251 83.75V84.25H301.777L301.751 83.7248L301.251 83.75ZM295.541 83.75L295.047 83.8231L295.11 84.25H295.541V83.75ZM294.263 81.1222L293.912 81.4782L293.917 81.483L294.263 81.1222ZM289.121 80.8807L289.414 81.2853L289.415 81.2846L289.121 80.8807ZM287.487 90.142L287.021 90.3231L287.023 90.327L287.487 90.142ZM289.121 92.3722L289.415 91.9683L289.415 91.9683L289.121 92.3722ZM293.439 92.7131L293.212 92.2674L293.209 92.269L293.439 92.7131ZM294.817 91.4773L294.402 91.1983L294.401 91.1999L294.817 91.4773ZM295.541 89.5028V89.0028H295.11L295.047 89.4296L295.541 89.5028ZM301.251 89.5028L301.751 89.5312L301.781 89.0028H301.251V89.5028ZM299.888 93.9062L299.467 93.6362L299.466 93.637L299.888 93.9062ZM296.55 96.8608L296.326 96.4136L296.326 96.4136L296.55 96.8608ZM291.507 97.9261V97.4261C289.344 97.4261 287.513 96.9683 285.994 96.0747L285.74 96.5057L285.487 96.9366C287.187 97.937 289.201 98.4261 291.507 98.4261V97.9261ZM285.74 96.5057L285.997 96.0765C284.479 95.1694 283.313 93.9146 282.493 92.3018L282.047 92.5284L281.601 92.755C282.505 94.5323 283.801 95.9291 285.484 96.9349L285.74 96.5057ZM282.047 92.5284L282.494 92.3038C281.682 90.6889 281.268 88.8173 281.268 86.6761H280.768H280.268C280.268 88.9479 280.708 90.9777 281.6 92.753L282.047 92.5284ZM280.768 86.6761H281.268C281.268 84.5062 281.687 82.6265 282.506 81.0231L282.061 80.7955L281.616 80.5679C280.712 82.3356 280.268 84.3764 280.268 86.6761H280.768ZM282.061 80.7955L282.506 81.024C283.335 79.4106 284.506 78.1604 286.023 77.2627L285.768 76.8324L285.514 76.4021C283.83 77.3983 282.53 78.7902 281.616 80.5669L282.061 80.7955ZM285.768 76.8324L286.025 77.2616C287.535 76.3594 289.346 75.8977 291.479 75.8977V75.3977V74.8977C289.199 74.8977 287.203 75.3925 285.512 76.4032L285.768 76.8324ZM291.479 75.3977V75.8977C293.322 75.8977 294.911 76.2322 296.261 76.8848L296.479 76.4347L296.696 75.9845C295.186 75.2545 293.443 74.8977 291.479 74.8977V75.3977ZM296.479 76.4347L296.261 76.8848C297.615 77.5396 298.677 78.4525 299.458 79.6239L299.874 79.3466L300.29 79.0692C299.404 77.7407 298.202 76.7123 296.696 75.9845L296.479 76.4347ZM299.874 79.3466L299.458 79.6239C300.235 80.79 300.671 82.1683 300.752 83.7752L301.251 83.75L301.751 83.7248C301.662 81.9605 301.179 80.4032 300.29 79.0692L299.874 79.3466ZM301.251 83.75V83.25H295.541V83.75V84.25H301.251V83.75ZM295.541 83.75L296.036 83.6769C295.861 82.4953 295.392 81.5121 294.609 80.7613L294.263 81.1222L293.917 81.483C294.516 82.0579 294.899 82.8267 295.047 83.8231L295.541 83.75ZM294.263 81.1222L294.614 80.7661C293.824 79.987 292.795 79.6136 291.578 79.6136V80.1136V80.6136C292.577 80.6136 293.338 80.9126 293.912 81.4782L294.263 81.1222ZM291.578 80.1136V79.6136C290.544 79.6136 289.619 79.8978 288.826 80.4768L289.121 80.8807L289.415 81.2846C290.024 80.8408 290.738 80.6136 291.578 80.6136V80.1136ZM289.121 80.8807L288.827 80.4761C288.044 81.0442 287.453 81.8619 287.037 82.8959L287.501 83.0824L287.965 83.2689C288.326 82.3711 288.814 81.7209 289.414 81.2853L289.121 80.8807ZM287.501 83.0824L287.037 82.8959C286.619 83.9367 286.419 85.1732 286.419 86.5909H286.919H287.419C287.419 85.2624 287.607 84.1599 287.965 83.2689L287.501 83.0824ZM286.919 86.5909H286.419C286.419 88.0256 286.614 89.2744 287.021 90.323L287.487 90.142L287.953 89.961C287.603 89.059 287.419 87.9403 287.419 86.5909H286.919ZM287.487 90.142L287.023 90.327C287.438 91.3714 288.035 92.1985 288.826 92.7761L289.121 92.3722L289.415 91.9683C288.805 91.5231 288.313 90.8635 287.952 89.9571L287.487 90.142ZM289.121 92.3722L288.826 92.7761C289.619 93.355 290.544 93.6392 291.578 93.6392V93.1392V92.6392C290.738 92.6392 290.024 92.4121 289.415 91.9683L289.121 92.3722ZM291.578 93.1392V93.6392C292.34 93.6392 293.04 93.4821 293.669 93.1572L293.439 92.7131L293.209 92.269C292.739 92.5122 292.199 92.6392 291.578 92.6392V93.1392ZM293.439 92.7131L293.666 93.1588C294.304 92.8344 294.827 92.3632 295.233 91.7546L294.817 91.4773L294.401 91.1999C294.087 91.6709 293.692 92.0236 293.212 92.2674L293.439 92.7131ZM294.817 91.4773L295.232 91.7563C295.649 91.1355 295.913 90.4043 296.036 89.5761L295.541 89.5028L295.047 89.4296C294.942 90.1355 294.723 90.7206 294.402 91.1983L294.817 91.4773ZM295.541 89.5028V90.0028H301.251V89.5028V89.0028H295.541V89.5028ZM301.251 89.5028L300.752 89.4745C300.662 91.0646 300.23 92.4473 299.467 93.6362L299.888 93.9062L300.309 94.1763C301.174 92.8273 301.652 91.2744 301.751 89.5312L301.251 89.5028ZM299.888 93.9062L299.466 93.637C298.713 94.8156 297.671 95.7411 296.326 96.4136L296.55 96.8608L296.773 97.308C298.269 96.56 299.452 95.5159 300.309 94.1755L299.888 93.9062ZM296.55 96.8608L296.326 96.4136C294.989 97.0822 293.388 97.4261 291.507 97.4261V97.9261V98.4261C293.509 98.4261 295.27 98.0598 296.773 97.308L296.55 96.8608ZM309.273 96.5625L309.026 96.9968L309.029 96.9985L309.273 96.5625ZM305.552 92.6705L305.108 92.9L305.108 92.9011L305.552 92.6705ZM305.552 80.7812L305.107 80.5527L305.107 80.5527L305.552 80.7812ZM309.231 76.8182L308.975 76.3885L308.974 76.3892L309.231 76.8182ZM318.847 76.0938L318.672 76.5621L318.676 76.5636L318.847 76.0938ZM322.114 78.1534L321.763 78.5088L321.764 78.5106L322.114 78.1534ZM324.302 81.6193L323.834 81.7945L323.834 81.7956L324.302 81.6193ZM325.083 88.1392V88.6392H325.583V88.1392H325.083ZM306.66 88.1392H306.16V88.6392H306.66V88.1392ZM306.66 84.3892V83.8892H306.16V84.3892H306.66ZM319.387 84.3892V84.8892H319.887V84.3892H319.387ZM318.819 82.0739L318.383 82.3193L318.383 82.3193L318.819 82.0739ZM317.242 80.4972L316.989 80.9287L316.997 80.9328L317.242 80.4972ZM312.484 80.554L312.739 80.9837L312.741 80.9827L312.484 80.554ZM310.836 82.2443L311.271 82.4911L311.272 82.4886L310.836 82.2443ZM310.225 84.5881L309.725 84.5826V84.5881H310.225ZM310.822 90.9517L310.376 91.1775L310.378 91.1817L310.822 90.9517ZM317.015 93.125L316.854 92.6515L316.854 92.6515L317.015 93.125ZM318.45 92.2727L318.105 91.9107L318.105 91.9107L318.45 92.2727ZM319.359 90.8807L319.392 90.3818L319.022 90.3574L318.891 90.7034L319.359 90.8807ZM324.955 91.25L325.444 91.3534L325.564 90.7891L324.988 90.7511L324.955 91.25ZM323.208 94.7727L322.832 94.443L322.832 94.4432L323.208 94.7727ZM319.827 97.1023L320.013 97.5665L320.015 97.5659L319.827 97.1023ZM315.069 97.9261V97.4261C312.892 97.4261 311.049 96.9857 309.518 96.1265L309.273 96.5625L309.029 96.9985C310.737 97.9575 312.757 98.4261 315.069 98.4261V97.9261ZM309.273 96.5625L309.521 96.1282C307.997 95.2583 306.823 94.0324 305.995 92.4399L305.552 92.6705L305.108 92.9011C306.023 94.6608 307.331 96.0296 309.026 96.9968L309.273 96.5625ZM305.552 92.6705L305.996 92.4409C305.169 90.8398 304.745 88.9284 304.745 86.6903H304.245H303.745C303.745 89.0546 304.193 91.1299 305.108 92.9L305.552 92.6705ZM304.245 86.6903H304.745C304.745 84.5114 305.168 82.6226 305.997 81.0098L305.552 80.7812L305.107 80.5527C304.194 82.33 303.745 84.3806 303.745 86.6903H304.245ZM305.552 80.7812L305.997 81.0098C306.827 79.3948 307.989 78.1445 309.488 77.2472L309.231 76.8182L308.974 76.3892C307.31 77.3858 306.02 78.7775 305.107 80.5527L305.552 80.7812ZM309.231 76.8182L309.487 77.2478C310.989 76.3537 312.763 75.8977 314.827 75.8977V75.3977V74.8977C312.611 74.8977 310.655 75.3887 308.975 76.3885L309.231 76.8182ZM314.827 75.3977V75.8977C316.212 75.8977 317.492 76.1208 318.672 76.5621L318.847 76.0938L319.022 75.6254C317.721 75.1387 316.321 74.8977 314.827 74.8977V75.3977ZM318.847 76.0938L318.676 76.5636C319.86 76.994 320.887 77.642 321.763 78.5088L322.114 78.1534L322.466 77.798C321.486 76.8277 320.335 76.1026 319.018 75.6239L318.847 76.0938ZM322.114 78.1534L321.764 78.5106C322.643 79.3715 323.335 80.462 323.834 81.7945L324.302 81.6193L324.77 81.4441C324.227 79.9926 323.461 78.7725 322.464 77.7963L322.114 78.1534ZM324.302 81.6193L323.834 81.7956C324.329 83.1094 324.583 84.6666 324.583 86.4773H325.083H325.583C325.583 84.5758 325.316 82.8943 324.77 81.4431L324.302 81.6193ZM325.083 86.4773H324.583V88.1392H325.083H325.583V86.4773H325.083ZM325.083 88.1392V87.6392H306.66V88.1392V88.6392H325.083V88.1392ZM306.66 88.1392H307.16V84.3892H306.66H306.16V88.1392H306.66ZM306.66 84.3892V84.8892H319.387V84.3892V83.8892H306.66V84.3892ZM319.387 84.3892H319.887C319.887 83.4433 319.681 82.585 319.255 81.8284L318.819 82.0739L318.383 82.3193C318.715 82.9075 318.887 83.5927 318.887 84.3892H319.387ZM318.819 82.0739L319.255 81.8284C318.831 81.0765 318.24 80.4852 317.488 80.0615L317.242 80.4972L316.997 80.9328C317.59 81.2667 318.049 81.7265 318.383 82.3193L318.819 82.0739ZM317.242 80.4972L317.495 80.0657C316.745 79.6263 315.883 79.4148 314.927 79.4148V79.9148V80.4148C315.732 80.4148 316.414 80.5915 316.989 80.9286L317.242 80.4972ZM314.927 79.9148V79.4148C313.928 79.4148 313.023 79.6475 312.226 80.1252L312.484 80.554L312.741 80.9827C313.365 80.6082 314.089 80.4148 314.927 80.4148V79.9148ZM312.484 80.554L312.228 80.1242C311.452 80.5857 310.84 81.213 310.4 82L310.836 82.2443L311.272 82.4886C311.627 81.8551 312.114 81.3556 312.739 80.9837L312.484 80.554ZM310.836 82.2443L310.401 81.9975C309.959 82.777 309.736 83.6423 309.725 84.5826L310.225 84.5881L310.725 84.5936C310.734 83.8104 310.918 83.1131 311.271 82.4911L310.836 82.2443ZM310.225 84.5881H309.725V88.1534H310.225H310.725V84.5881H310.225ZM310.225 88.1534H309.725C309.725 89.294 309.935 90.3075 310.376 91.1775L310.822 90.9517L311.268 90.726C310.913 90.024 310.725 89.1719 310.725 88.1534H310.225ZM310.822 90.9517L310.378 91.1817C310.827 92.0491 311.466 92.7272 312.291 93.203L312.54 92.7699L312.79 92.3368C312.138 91.9603 311.631 91.4262 311.266 90.7217L310.822 90.9517ZM312.54 92.7699L312.291 93.203C313.118 93.6805 314.084 93.9091 315.168 93.9091V93.4091V92.9091C314.226 92.9091 313.44 92.7115 312.79 92.3368L312.54 92.7699ZM315.168 93.4091V93.9091C315.888 93.9091 316.558 93.8077 317.175 93.5985L317.015 93.125L316.854 92.6515C316.354 92.8211 315.794 92.9091 315.168 92.9091V93.4091ZM317.015 93.125L317.175 93.5985C317.798 93.3876 318.34 93.0673 318.794 92.6348L318.45 92.2727L318.105 91.9107C317.763 92.2357 317.349 92.4836 316.854 92.6515L317.015 93.125ZM318.45 92.2727L318.794 92.6348C319.25 92.2008 319.593 91.6723 319.826 91.058L319.359 90.8807L318.891 90.7034C318.707 91.1876 318.445 91.587 318.105 91.9107L318.45 92.2727ZM319.359 90.8807L319.326 91.3796L324.922 91.7489L324.955 91.25L324.988 90.7511L319.392 90.3818L319.359 90.8807ZM324.955 91.25L324.466 91.1466C324.199 92.41 323.655 93.5056 322.832 94.443L323.208 94.7727L323.584 95.1025C324.523 94.0323 325.143 92.7794 325.444 91.3534L324.955 91.25ZM323.208 94.7727L322.832 94.4432C322.019 95.3715 320.959 96.1055 319.64 96.6387L319.827 97.1023L320.015 97.5659C321.46 96.9816 322.655 96.1625 323.584 95.1022L323.208 94.7727ZM319.827 97.1023L319.642 96.638C318.339 97.1591 316.818 97.4261 315.069 97.4261V97.9261V98.4261C316.918 98.4261 318.57 98.1439 320.013 97.5665L319.827 97.1023Z" fill="#D9D9D9" mask="url(#path-1-outside-1_16_22)"/>
<g filter="url(#filter0_d_16_22)">
<path d="M8.22226 27.5H76.2223L78.2223 58C78.2223 58 63.632 62.9349 58.5 69C49.8329 79.243 56.7224 102.5 56.7224 102.5C53.7224 105.533 17.7224 104.567 8.22226 99.5C-1.27783 94.4333 8.22226 27.5 8.22226 27.5Z" fill="black"/>
</g>
<mask id="path-4-outside-2_16_22" maskUnits="userSpaceOnUse" x="56.7317" y="59.8591" width="58.3395" height="60.4608" fill="black">
<rect fill="white" x="56.7317" y="59.8591" width="58.3395" height="60.4608"/>
<path d="M92.8234 112.984C88.2167 114.218 84.0015 114.347 80.1777 113.372C76.3681 112.372 73.1083 110.391 70.3982 107.43C67.6829 104.449 65.6924 100.597 64.4268 95.8741C63.1925 91.2674 63.0033 86.9848 63.8592 83.0264C64.7152 79.0679 66.5058 75.6819 69.231 72.8684C71.9757 70.0497 75.5445 68.0518 79.9373 66.8747C82.8918 66.0831 85.7698 65.8223 88.5713 66.0925C91.387 66.338 93.9999 67.1482 96.41 68.5233C98.8395 69.8931 100.972 71.8634 102.806 74.4343C104.636 76.9857 106.061 80.1662 107.082 83.976L107.996 87.3873L70.1802 97.5199L68.1178 89.8227L94.2417 82.8228C93.7625 81.0345 92.9493 79.5546 91.802 78.3828C90.6547 77.2111 89.2869 76.4214 87.6985 76.0137C86.1243 75.5813 84.4334 75.6073 82.6257 76.0917C80.7403 76.5969 79.1859 77.4821 77.9624 78.7474C76.7532 79.9881 75.9357 81.4467 75.51 83.1233C75.079 84.7804 75.0908 86.4959 75.5453 88.2699L77.5062 95.5881C78.1 97.804 79.0212 99.6092 80.2698 101.004C81.5379 102.393 83.0472 103.322 84.7977 103.79C86.5482 104.259 88.4633 104.214 90.5431 103.657C91.9232 103.287 93.1345 102.755 94.1772 102.058C95.2198 101.362 96.0452 100.516 96.6532 99.5201C97.2613 98.5238 97.6281 97.4047 97.7536 96.1628L109.444 93.8428C109.601 96.7591 109.051 99.4897 107.796 102.034C106.554 104.554 104.668 106.768 102.138 108.675C99.6212 110.558 96.5165 111.994 92.8234 112.984Z"/>
</mask>
<path d="M92.8234 112.984C88.2167 114.218 84.0015 114.347 80.1777 113.372C76.3681 112.372 73.1083 110.391 70.3982 107.43C67.6829 104.449 65.6924 100.597 64.4268 95.8741C63.1925 91.2674 63.0033 86.9848 63.8592 83.0264C64.7152 79.0679 66.5058 75.6819 69.231 72.8684C71.9757 70.0497 75.5445 68.0518 79.9373 66.8747C82.8918 66.0831 85.7698 65.8223 88.5713 66.0925C91.387 66.338 93.9999 67.1482 96.41 68.5233C98.8395 69.8931 100.972 71.8634 102.806 74.4343C104.636 76.9857 106.061 80.1662 107.082 83.976L107.996 87.3873L70.1802 97.5199L68.1178 89.8227L94.2417 82.8228C93.7625 81.0345 92.9493 79.5546 91.802 78.3828C90.6547 77.2111 89.2869 76.4214 87.6985 76.0137C86.1243 75.5813 84.4334 75.6073 82.6257 76.0917C80.7403 76.5969 79.1859 77.4821 77.9624 78.7474C76.7532 79.9881 75.9357 81.4467 75.51 83.1233C75.079 84.7804 75.0908 86.4959 75.5453 88.2699L77.5062 95.5881C78.1 97.804 79.0212 99.6092 80.2698 101.004C81.5379 102.393 83.0472 103.322 84.7977 103.79C86.5482 104.259 88.4633 104.214 90.5431 103.657C91.9232 103.287 93.1345 102.755 94.1772 102.058C95.2198 101.362 96.0452 100.516 96.6532 99.5201C97.2613 98.5238 97.6281 97.4047 97.7536 96.1628L109.444 93.8428C109.601 96.7591 109.051 99.4897 107.796 102.034C106.554 104.554 104.668 106.768 102.138 108.675C99.6212 110.558 96.5165 111.994 92.8234 112.984Z" fill="black"/>
<path d="M80.1777 113.372L80.0507 113.856L80.0541 113.856L80.1777 113.372ZM70.3982 107.43L70.0286 107.767L70.0293 107.768L70.3982 107.43ZM63.8592 83.0264L63.3705 82.9207L63.3705 82.9207L63.8592 83.0264ZM69.231 72.8684L68.8728 72.5196L68.8719 72.5205L69.231 72.8684ZM88.5713 66.0925L88.5233 66.5902L88.5279 66.5906L88.5713 66.0925ZM96.41 68.5233L96.1622 68.9576L96.1644 68.9588L96.41 68.5233ZM102.806 74.4343L102.399 74.7247L102.4 74.7256L102.806 74.4343ZM107.996 87.3873L108.125 87.8702L108.608 87.7408L108.479 87.2578L107.996 87.3873ZM70.1802 97.5199L69.6973 97.6493L69.8267 98.1323L70.3096 98.0029L70.1802 97.5199ZM68.1178 89.8227L67.9883 89.3397L67.5054 89.4691L67.6348 89.9521L68.1178 89.8227ZM94.2417 82.8228L94.3711 83.3057L94.854 83.1763L94.7246 82.6934L94.2417 82.8228ZM91.802 78.3828L91.4447 78.7326L91.4447 78.7326L91.802 78.3828ZM87.6985 76.0137L87.566 76.4959L87.5742 76.498L87.6985 76.0137ZM77.9624 78.7474L78.3205 79.0964L78.3219 79.095L77.9624 78.7474ZM75.51 83.1233L75.9939 83.2491L75.9946 83.2463L75.51 83.1233ZM75.5453 88.2699L75.0609 88.3941L75.0624 88.3994L75.5453 88.2699ZM80.2698 101.004L79.8973 101.337L79.9005 101.341L80.2698 101.004ZM94.1772 102.058L93.8996 101.643L93.8996 101.643L94.1772 102.058ZM96.6532 99.5201L96.2264 99.2596L96.2264 99.2596L96.6532 99.5201ZM97.7536 96.1628L97.6563 95.6723L97.2933 95.7444L97.2561 96.1125L97.7536 96.1628ZM109.444 93.8428L109.944 93.816L109.913 93.2401L109.347 93.3523L109.444 93.8428ZM107.796 102.034L107.347 101.813L107.347 101.813L107.796 102.034ZM102.138 108.675L102.437 109.076L102.439 109.075L102.138 108.675ZM92.8234 112.984L92.694 112.501C88.1529 113.717 84.0263 113.838 80.3013 112.888L80.1777 113.372L80.0541 113.856C83.9767 114.857 88.2805 114.718 92.9528 113.467L92.8234 112.984ZM80.1777 113.372L80.3046 112.888C76.5899 111.913 73.4135 109.984 70.767 107.092L70.3982 107.43L70.0293 107.768C72.803 110.798 76.1463 112.831 80.0507 113.856L80.1777 113.372ZM70.3982 107.43L70.7678 107.093C68.1166 104.183 66.1591 100.407 64.9098 95.7447L64.4268 95.8741L63.9439 96.0035C65.2258 100.788 67.2492 104.716 70.0286 107.767L70.3982 107.43ZM64.4268 95.8741L64.9098 95.7447C63.6924 91.2012 63.5115 87.0001 64.3479 83.132L63.8592 83.0264L63.3705 82.9207C62.495 86.9695 62.6926 91.3336 63.9439 96.0035L64.4268 95.8741ZM63.8592 83.0264L64.3479 83.132C65.1849 79.2616 66.9322 75.9604 69.5902 73.2163L69.231 72.8684L68.8719 72.5205C66.0794 75.4035 64.2455 78.8743 63.3705 82.9207L63.8592 83.0264ZM69.231 72.8684L69.5893 73.2172C72.2619 70.4725 75.7471 68.5151 80.0667 67.3577L79.9373 66.8747L79.8079 66.3918C75.3419 67.5884 71.6895 69.6269 68.8728 72.5196L69.231 72.8684ZM79.9373 66.8747L80.0667 67.3577C82.9685 66.5802 85.7863 66.3262 88.5233 66.5902L88.5713 66.0925L88.6193 65.5948C85.7533 65.3184 82.8151 65.586 79.8079 66.3918L79.9373 66.8747ZM88.5713 66.0925L88.5279 66.5906C91.2731 66.8299 93.8161 67.619 96.1622 68.9576L96.41 68.5233L96.6578 68.089C94.1838 66.6775 91.501 65.846 88.6147 65.5944L88.5713 66.0925ZM96.41 68.5233L96.1644 68.9588C98.5222 70.2882 100.602 72.2055 102.399 74.7247L102.806 74.4343L103.213 74.1438C101.342 71.5213 99.1568 69.498 96.6556 68.0877L96.41 68.5233ZM102.806 74.4343L102.4 74.7256C104.187 77.2174 105.59 80.3395 106.599 84.1054L107.082 83.976L107.565 83.8466C106.532 79.993 105.085 76.754 103.213 74.1429L102.806 74.4343ZM107.082 83.976L106.599 84.1054L107.513 87.5167L107.996 87.3873L108.479 87.2578L107.565 83.8466L107.082 83.976ZM107.996 87.3873L107.866 86.9043L70.0508 97.0369L70.1802 97.5199L70.3096 98.0029L108.125 87.8702L107.996 87.3873ZM70.1802 97.5199L70.6632 97.3905L68.6007 89.6933L68.1178 89.8227L67.6348 89.9521L69.6973 97.6493L70.1802 97.5199ZM68.1178 89.8227L68.2472 90.3056L94.3711 83.3057L94.2417 82.8228L94.1123 82.3398L67.9883 89.3397L68.1178 89.8227ZM94.2417 82.8228L94.7246 82.6934C94.2261 80.833 93.3741 79.2738 92.1593 78.033L91.802 78.3828L91.4447 78.7326C92.5244 79.8353 93.2989 81.2361 93.7587 82.9522L94.2417 82.8228ZM91.802 78.3828L92.1593 78.033C90.9481 76.796 89.4997 75.9598 87.8228 75.5294L87.6985 76.0137L87.5742 76.498C89.0741 76.883 90.3614 77.6262 91.4447 78.7326L91.802 78.3828ZM87.6985 76.0137L87.8309 75.5315C86.1592 75.0724 84.377 75.1048 82.4963 75.6087L82.6257 76.0917L82.7551 76.5746C84.4898 76.1099 86.0895 76.0903 87.5661 76.4958L87.6985 76.0137ZM82.6257 76.0917L82.4963 75.6087C80.5332 76.1347 78.8961 77.0625 77.603 78.3999L77.9624 78.7474L78.3219 79.095C79.4756 77.9018 80.9474 77.059 82.7551 76.5746L82.6257 76.0917ZM77.9624 78.7474L77.6044 78.3985C76.334 79.7019 75.4728 81.2384 75.0254 83.0002L75.51 83.1233L75.9946 83.2463C76.3987 81.655 77.1725 80.2743 78.3205 79.0964L77.9624 78.7474ZM75.51 83.1233L75.0261 82.9974C74.5723 84.7421 74.5869 86.5439 75.061 88.394L75.5453 88.2699L76.0297 88.1459C75.5947 86.448 75.5857 84.8186 75.9939 83.2491L75.51 83.1233ZM75.5453 88.2699L75.0624 88.3994L77.0233 95.7176L77.5062 95.5881L77.9892 95.4587L76.0283 88.1405L75.5453 88.2699ZM77.5062 95.5881L77.0233 95.7176C77.6328 97.9924 78.5858 99.8726 79.8973 101.337L80.2698 101.004L80.6423 100.67C79.4565 99.3458 78.5671 97.6156 77.9892 95.4587L77.5062 95.5881ZM80.2698 101.004L79.9005 101.341C81.2305 102.798 82.822 103.779 84.6684 104.273L84.7977 103.79L84.9269 103.307C83.2724 102.865 81.8454 101.988 80.6391 100.667L80.2698 101.004ZM84.7977 103.79L84.6684 104.273C86.5184 104.769 88.524 104.716 90.6725 104.14L90.5431 103.657L90.4137 103.174C88.4026 103.713 86.578 103.749 84.9269 103.307L84.7977 103.79ZM90.5431 103.657L90.6725 104.14C92.0981 103.758 93.3609 103.205 94.4548 102.474L94.1772 102.058L93.8996 101.643C92.9082 102.304 91.7483 102.817 90.4137 103.174L90.5431 103.657ZM94.1772 102.058L94.4548 102.474C95.5533 101.741 96.4314 100.843 97.08 99.7805L96.6532 99.5201L96.2264 99.2596C95.659 100.189 94.8864 100.984 93.8996 101.643L94.1772 102.058ZM96.6532 99.5201L97.08 99.7805C97.7297 98.716 98.1185 97.5242 98.2511 96.2131L97.7536 96.1628L97.2561 96.1125C97.1376 97.2852 96.7928 98.3316 96.2264 99.2596L96.6532 99.5201ZM97.7536 96.1628L97.8509 96.6532L109.542 94.3332L109.444 93.8428L109.347 93.3523L97.6563 95.6723L97.7536 96.1628ZM109.444 93.8428L108.945 93.8695C109.097 96.7028 108.564 99.3477 107.347 101.813L107.796 102.034L108.244 102.256C109.539 99.6317 110.104 96.8154 109.944 93.816L109.444 93.8428ZM107.796 102.034L107.347 101.813C106.144 104.255 104.313 106.41 101.837 108.276L102.138 108.675L102.439 109.075C105.023 107.126 106.964 104.854 108.244 102.255L107.796 102.034ZM102.138 108.675L101.838 108.275C99.3824 110.112 96.3386 111.524 92.694 112.501L92.8234 112.984L92.9528 113.467C96.6944 112.464 99.8601 111.004 102.437 109.076L102.138 108.675Z" fill="#D9D9D9" mask="url(#path-4-outside-2_16_22)"/>
<path d="M32 39H24.5C24.5 39 24.3983 1 40.5 1C56 1 58.5 39 58.5 39H50C50 39 53.7405 9.5 40.5 9.5C28.5108 9.5 32 39 32 39Z" fill="black" stroke="#D9D9D9" stroke-width="0.5"/>
<defs>
<filter id="filter0_d_16_22" x="0" y="27.5" width="82.2223" height="84.7195" filterUnits="userSpaceOnUse" color-interpolation-filters="sRGB">
<feFlood flood-opacity="0" result="BackgroundImageFix"/>
<feColorMatrix in="SourceAlpha" type="matrix" values="0 0 0 0 0 0 0 0 0 0 0 0 0 0 0 0 0 0 127 0" result="hardAlpha"/>
<feOffset dy="4"/>
<feGaussianBlur stdDeviation="2"/>
<feComposite in2="hardAlpha" operator="out"/>
<feColorMatrix type="matrix" values="0 0 0 0 0 0 0 0 0 0 0 0 0 0 0 0 0 0 0.25 0"/>
<feBlend mode="normal" in2="BackgroundImageFix" result="effect1_dropShadow_16_22"/>
<feBlend mode="normal" in="SourceGraphic" in2="effect1_dropShadow_16_22" result="shape"/>
</filter>
</defs>
</svg>
